<svg width="400" height="52" viewBox="0 0 400 52" fill="none" xmlns="http://www.w3.org/2000/svg">
<path fill-rule="evenodd" clip-rule="evenodd" d="M45.9375 0.765625H64.2187V5.45312H45.9375V0.765625ZM45.9374 5.45332H36.4062V9.82819H32.0313V18.8908H27.6564V28.2658H32.3439V19.2032H36.7188V10.1408H45.9374V5.45332ZM77.9688 19.2031H82.6563V23.8906H77.9688V19.2031ZM4.68769 28.2656H9.37519V32.9531H4.68769V28.2656ZM4.6875 32.9533H0V46.7033H4.6875V32.9533ZM115.313 46.7031H4.68769V51.2343H115.313V46.7031ZM27.6562 28.2656H22.9687V32.9531H27.6562V28.2656ZM87.344 23.8908H82.6565V28.5783H87.344V23.8908ZM87.3436 19.2031H92.0311V23.8906H87.3436V19.2031ZM110.625 19.2031H105.938V23.8906H110.625V19.2031ZM110.625 23.8908H115.313V28.578H120V46.703H115.312V28.5783H110.625V23.8908ZM73.7498 9.82819H77.9686V19.2032H73.2811V10.1408H64.2185V5.45332H73.7498V9.82819ZM9.37488 23.578H22.9686V28.2655H9.37488V23.578ZM105.938 14.5154H92.0313V19.2029H105.938V14.5154Z" fill="#161616"/>
<path fill-rule="evenodd" clip-rule="evenodd" d="M31.8745 28.2656H36.562V32.9531H31.8745V28.2656ZM78.1243 28.2656H82.8118V32.9531H78.1243V28.2656ZM110.624 42.3282H77.9682V33.1092H73.2807V42.3282H73.2805V37.7969H68.593V42.3282H41.2494V42.328H45.9365V37.6405H41.2494V32.9533H36.5619V42.3282H9.37446V42.328H14.0616V37.6405H9.37446V32.9533H4.68696V42.3282H4.68677V46.7032H115.312L115.312 42.3283L115.312 42.3282L115.312 32.9533H110.624V42.3282ZM110.624 37.6405H105.937V42.328H110.624V37.6405Z" fill="#C3E0FF"/>
<path fill-rule="evenodd" clip-rule="evenodd" d="M64.2178 5.45215H45.9365V10.1398H41.4056H41.2494H36.7181V19.046H32.1868V28.2648H36.7181V32.9523H41.2494V37.7961H45.9365V42.3271H64.2178V5.45215ZM68.9056 9.98343H64.2181V42.3272H68.9056V9.98343ZM68.9058 9.98343H73.5933V19.046H77.968V23.7332H82.6553V28.4207H77.968V32.9523H73.5933V37.6397H68.9058V9.98343ZM9.37476 28.2653H22.9685V32.953H36.7186V42.328H13.5936V37.6403H9.37476V28.2653ZM32.3437 28.2653H27.6562V32.9528H32.3437V28.2653ZM106.055 19.2027H92.0098V23.8902H106.055V19.2027ZM87.3814 23.8904H110.683V28.2652H115.312V32.9527H110.683V33.2654H110.683V37.6402H106.055V42.3274H78.1242V32.9524H82.7526V28.2652H87.3814V23.8904Z" fill="#FCFCFC"/>
<path d="M142 21V18H139V15H136V6H139V3H142V0H154V3H157V6H151V3H145V6H142V15H145V18H151V15H157V18H154V21H142ZM169 9H172V12H169V21H163V6H169V9ZM181 6V9H172V6H181ZM187 24V21H199V18H187V15H184V6H190V15H199V6H205V21H202V24H187ZM208 24V6H226V9H229V15H226V18H214V24H208ZM214 15H223V9H214V15ZM241 21V9H235V6H241V0H247V6H253V9H247V21H241ZM259 21V18H256V9H259V6H274V9H277V18H274V21H259ZM262 18H271V9H262V18ZM286 21V18H283V15H280V6H283V3H286V0H298V3H301V6H295V3H289V6H286V15H289V18H295V15H301V18H298V21H286ZM307 21V18H313V3H310V0H319V18H325V21H307ZM331 21V18H328V9H331V6H346V9H349V18H346V21H331ZM334 18H343V9H334V18ZM355 21V18H352V6H358V18H367V6H373V21H355ZM379 21V18H376V9H379V6H391V0H397V21H379ZM382 18H391V9H382V18Z" fill="#FCFCFC"/>
<path d="M152 49V28H173V31H158V37H170V40H158V46H173V49H152ZM176 49V46H179V43H182V40H179V37H176V34H182V37H185V40H188V37H191V34H197V37H194V40H191V43H194V46H197V49H191V46H188V43H185V46H182V49H176ZM200 52V34H218V37H221V43H218V46H206V52H200ZM206 43H215V37H206V43ZM227 49V46H224V37H227V34H242V37H245V46H242V49H227ZM230 46H239V37H230V46Z" fill="#FCFCFC"/>
</svg>
