<svg width="48" height="21" viewBox="0 0 48 21" fill="none" xmlns="http://www.w3.org/2000/svg">
<path fill-rule="evenodd" clip-rule="evenodd" d="M18.375 0H25.6875V1.875H18.375V0ZM11.0625 11V7.25H12.8125V3.625H14.5625V1.875H18.375V3.75H14.6875V7.375H12.9375V11H11.0625ZM9.1875 11H11.0625V12.875H9.1875V11ZM3.75 11V9.125H9.1875V11H3.75ZM1.875 12.875V11H3.75V12.875H1.875ZM1.875 18.375H0V12.875H1.875V18.375ZM46.125 18.375V20.1875H1.875V18.375H46.125ZM46.125 11.125H48V18.375H46.125L46.125 11.125ZM44.25 9.25H46.125V11.125H44.25V9.25ZM42.375 7.375V9.25H44.25V7.375H42.375ZM36.8125 7.375V5.5H42.375V7.375H36.8125ZM34.9375 9.25V7.375H36.8125V9.25H34.9375ZM33.0625 9.25H34.9375V11.125H33.0625V9.25ZM31.1875 7.375H33.0625V9.25H31.1875V7.375ZM31.1875 7.375V3.625H29.5V1.875H25.6875L25.6875 3.75H29.3125V7.375H31.1875Z" fill="#161616"/>
<path fill-rule="evenodd" clip-rule="evenodd" d="M12.75 11H14.625V12.875H12.75V11ZM3.75 14.75V12.875H1.875L1.875 16.625V18.375H46.125V16.625L46.125 12.875H44.25V14.75H42.375V16.625H31.1875V12.9375H29.3125V14.8125H27.4375V16.625H18.375V14.75H16.5L16.5 12.875H14.625V16.625H5.625V14.75H3.75ZM31.25 11H33.125V12.875H31.25V11Z" fill="#C3E0FF"/>
<path fill-rule="evenodd" clip-rule="evenodd" d="M25.6876 1.875H18.3751V3.75H16.5626H16.5001H14.6876V7.3125H12.8751V11H11.0626V12.875H9.1875V11H3.75V14.75H5.4376V16.625H14.6876V12.875H16.5001V14.8125H18.3751V16.625H25.6876H27.5626V14.75H29.4376V12.875H31.1876V11.0625H33.0626V9.1875H31.1876V7.3125H29.4376V3.6875H27.5626H25.6876V1.875ZM12.9376 12.875V11H14.6876V12.875H12.9376ZM42.4223 7.37495H36.8043V9.24995H34.9527V11H33.1012V12.875H31.25V16.625H42.4222V14.75H44.2734V13H44.2735V12.875H46.1248V11H44.2735V9.24995H42.4223V7.37495Z" fill="#FCFCFC"/>
</svg>
