<svg width="19" height="19" viewBox="0 0 19 19" fill="none" xmlns="http://www.w3.org/2000/svg">
  <path d="M5 7.45068C5.24609 7.59131 5.31641 7.87256 5.24609 8.11865C5.14062 8.43506 5.03516 8.75146 5 9.06787C4.96484 9.34912 4.75391 9.56006 4.47266 9.56006H1.0625C0.746094 9.56006 0.464844 9.31396 0.5 8.99756C0.570312 7.87256 0.851562 6.81787 1.27344 5.86865C1.41406 5.55225 1.80078 5.44678 2.08203 5.62256L5 7.45068ZM11.7148 0.841309C12.0312 0.946777 12.1719 1.29834 12.0664 1.61475L10.7305 5.271C10.6602 5.48193 10.4492 5.62256 10.2031 5.62256H8.76172C8.51562 5.62256 8.30469 5.48193 8.23438 5.271L6.89844 1.61475C6.79297 1.29834 6.93359 0.946777 7.25 0.841309C7.98828 0.665527 8.72656 0.560059 9.5 0.560059C10.2383 0.560059 10.9766 0.665527 11.7148 0.841309ZM4.4375 10.6851C4.71875 10.6851 5 10.9663 5 11.2476V13.4976C5 13.814 4.71875 14.0601 4.4375 14.0601H1.0625C0.746094 14.0601 0.5 13.814 0.5 13.4976V11.2476C0.5 10.9663 0.746094 10.6851 1.0625 10.6851H4.4375ZM4.4375 15.1851C4.71875 15.1851 5 15.4663 5 15.7476V17.9976C5 18.314 4.71875 18.5601 4.4375 18.5601H1.0625C0.746094 18.5601 0.5 18.314 0.5 17.9976V15.7476C0.5 15.4663 0.746094 15.1851 1.0625 15.1851H4.4375ZM7.14453 5.23584C7.25 5.48193 7.14453 5.76318 6.93359 5.90381C6.72266 6.04443 6.51172 6.22021 6.33594 6.396C6.125 6.60693 5.84375 6.64209 5.63281 6.50146L2.71484 4.67334C2.43359 4.49756 2.32812 4.11084 2.53906 3.86475C3.27734 2.98584 4.12109 2.28271 5.07031 1.75537C5.35156 1.57959 5.73828 1.72021 5.84375 2.03662L7.14453 5.23584ZM14.4922 9.56006C14.2109 9.56006 14 9.34912 13.9648 9.06787C13.9297 8.75146 13.8242 8.43506 13.7188 8.11865C13.6484 7.87256 13.7188 7.59131 13.9648 7.45068L16.8828 5.62256C17.1641 5.44678 17.5508 5.55225 17.6914 5.86865C18.1133 6.81787 18.3945 7.87256 18.4648 8.99756C18.5 9.31396 18.2188 9.56006 17.9023 9.56006H14.4922ZM16.4258 3.86475C16.6367 4.11084 16.5312 4.49756 16.25 4.67334L13.332 6.50146C13.1211 6.64209 12.8398 6.60693 12.6289 6.396C12.4531 6.22021 12.2422 6.04443 12.0312 5.90381C11.8203 5.76318 11.7148 5.48193 11.8203 5.23584L13.1211 2.03662C13.2266 1.72021 13.6133 1.57959 13.8945 1.75537C14.8438 2.28271 15.6875 2.98584 16.4258 3.86475ZM17.9375 10.6851C18.2188 10.6851 18.5 10.9663 18.5 11.2476V13.4976C18.5 13.814 18.2188 14.0601 17.9375 14.0601H14.5625C14.2461 14.0601 14 13.814 14 13.4976V11.2476C14 10.9663 14.2461 10.6851 14.5625 10.6851H17.9375ZM17.9375 15.1851C18.2188 15.1851 18.5 15.4663 18.5 15.7476V17.9976C18.5 18.314 18.2188 18.5601 17.9375 18.5601H14.5625C14.2461 18.5601 14 18.314 14 17.9976V15.7476C14 15.4663 14.2461 15.1851 14.5625 15.1851H17.9375ZM8.9375 6.81787C9.11328 6.78271 9.28906 6.74756 9.5 6.74756C9.67578 6.74756 9.85156 6.78271 10.0625 6.81787V17.1538C10.0625 17.3296 9.92188 17.4351 9.78125 17.4351H9.21875C9.04297 17.4351 8.9375 17.3296 8.9375 17.1538V6.81787ZM6.6875 8.29443C6.96875 7.8374 7.35547 7.48584 7.8125 7.23975V17.1538C7.8125 17.3296 7.67188 17.4351 7.53125 17.4351H6.96875C6.79297 17.4351 6.6875 17.3296 6.6875 17.1538V8.29443ZM11.1875 7.23975C11.6094 7.48584 11.9961 7.8374 12.3125 8.29443V17.1538C12.3125 17.3296 12.1719 17.4351 12.0312 17.4351H11.4688C11.293 17.4351 11.1875 17.3296 11.1875 17.1538V7.23975Z" fill="url(#paint0_linear_7_603)"/>
  <defs>
  <linearGradient id="paint0_linear_7_603" x1="0.543795" y1="9.69484" x2="18.5438" y2="9.69484" gradientUnits="userSpaceOnUse">
  <stop stop-color="#1A46B5"/>
  <stop offset="1" stop-color="#3C9AFE"/>
  </linearGradient>
  </defs>
  </svg>
  