<svg width="120" height="51" viewBox="0 0 120 51" fill="none" xmlns="http://www.w3.org/2000/svg">
<path fill-rule="evenodd" clip-rule="evenodd" d="M45.9375 0H64.2187V4.6875H45.9375V0ZM45.9374 4.68769H36.4062V9.06257H32.0313V18.1251H27.6564V27.5001H32.3439V18.4376H36.7188V9.37519H45.9374V4.68769ZM77.9688 18.4374H82.6563V23.1249H77.9688V18.4374ZM4.68769 27.5H9.37519V32.1875H4.68769V27.5ZM4.6875 32.1877H0V45.9377H4.6875V32.1877ZM115.313 45.9375H4.68769V50.4687H115.313V45.9375ZM27.6562 27.5H22.9687V32.1875H27.6562V27.5ZM87.344 23.1251H82.6565V27.8126H87.344V23.1251ZM87.3436 18.4374H92.0311V23.1249H87.3436V18.4374ZM110.625 18.4374H105.938V23.1249H110.625V18.4374ZM110.625 23.1251H115.313V27.8123H120V45.9373H115.312V27.8126H110.625V23.1251ZM73.7498 9.06257H77.9686V18.4376H73.2811V9.37519H64.2185V4.68769H73.7498V9.06257ZM9.37488 22.8123H22.9686V27.4998H9.37488V22.8123ZM105.938 13.7498H92.0313V18.4373H105.938V13.7498Z" fill="#161616"/>
<path fill-rule="evenodd" clip-rule="evenodd" d="M31.8746 27.5H36.5621V32.1875H31.8746V27.5ZM78.1244 27.5H82.8119V32.1875H78.1244V27.5ZM110.624 41.5626H77.9683V32.3436H73.2808V41.5626H73.2806V37.0313H68.5931V41.5626H41.2495V41.5624H45.9367V36.8749H41.2495V32.1877H36.562V41.5626H9.37458V41.5624H14.0618V36.8749H9.37458V32.1877H4.68708V41.5626H4.68689V45.9376H115.312L115.312 41.5627L115.312 41.5626L115.312 32.1877H110.624V41.5626ZM110.624 36.8749H105.937V41.5624H110.624V36.8749Z" fill="#C3E0FF"/>
<path fill-rule="evenodd" clip-rule="evenodd" d="M64.2178 4.68652H45.9365V9.37422H41.4056H41.2494H36.7181V18.2804H32.1868V27.4991H36.7181V32.1867H41.2494V37.0305H45.9365V41.5615H64.2178V4.68652ZM68.9056 9.21781H64.2181V41.5616H68.9056V9.21781ZM68.9058 9.21781H73.5933V18.2804H77.968V22.9676H82.6553V27.6551H77.968V32.1866H73.5933V36.8741H68.9058V9.21781ZM9.37476 27.4997H22.9685V32.1874H36.7186V41.5624H13.5936V36.8747H9.37476V27.4997ZM32.3437 27.4997H27.6562V32.1872H32.3437V27.4997ZM106.055 18.437H92.0098V23.1245H106.055V18.437ZM87.3814 23.1247H110.683V27.4996H115.312V32.1871H110.683V32.4997H110.683V36.8746H106.055V41.5618H78.1242V32.1868H82.7526V27.4996H87.3814V23.1247Z" fill="#FCFCFC"/>
</svg>
