<svg width="73" height="74" viewBox="0 0 73 74" fill="none" xmlns="http://www.w3.org/2000/svg">
  <rect x="0.00012207" y="0.905029" width="73" height="73" rx="36.5" fill="#C3E0FF"/>
  <mask id="mask0_7_541" style="mask-type:alpha" maskUnits="userSpaceOnUse" x="20" y="21" width="33" height="33">
  <rect x="20.5001" y="21.405" width="32" height="32" fill="#D9D9D9"/>
  </mask>
  <g mask="url(#mask0_7_541)">
  <path d="M27.1668 50.7383C26.4335 50.7383 25.8057 50.4772 25.2835 49.955C24.7612 49.4328 24.5001 48.805 24.5001 48.0717V29.405C24.5001 28.6717 24.7612 28.0439 25.2835 27.5217C25.8057 26.9994 26.4335 26.7383 27.1668 26.7383H28.5001V25.405C28.5001 25.0272 28.6279 24.7105 28.8835 24.455C29.139 24.1994 29.4557 24.0717 29.8335 24.0717C30.2112 24.0717 30.5279 24.1994 30.7835 24.455C31.039 24.7105 31.1668 25.0272 31.1668 25.405V26.7383H41.8335V25.405C41.8335 25.0272 41.9612 24.7105 42.2168 24.455C42.4723 24.1994 42.789 24.0717 43.1668 24.0717C43.5446 24.0717 43.8612 24.1994 44.1168 24.455C44.3723 24.7105 44.5001 25.0272 44.5001 25.405V26.7383H45.8335C46.5668 26.7383 47.1946 26.9994 47.7168 27.5217C48.239 28.0439 48.5001 28.6717 48.5001 29.405V48.0717C48.5001 48.805 48.239 49.4328 47.7168 49.955C47.1946 50.4772 46.5668 50.7383 45.8335 50.7383H27.1668ZM27.1668 48.0717H45.8335V34.7383H27.1668V48.0717ZM27.1668 32.0717H45.8335V29.405H27.1668V32.0717ZM36.5001 40.0717C36.1223 40.0717 35.8057 39.9439 35.5501 39.6883C35.2946 39.4328 35.1668 39.1161 35.1668 38.7383C35.1668 38.3605 35.2946 38.0439 35.5501 37.7883C35.8057 37.5328 36.1223 37.405 36.5001 37.405C36.8779 37.405 37.1946 37.5328 37.4501 37.7883C37.7057 38.0439 37.8335 38.3605 37.8335 38.7383C37.8335 39.1161 37.7057 39.4328 37.4501 39.6883C37.1946 39.9439 36.8779 40.0717 36.5001 40.0717ZM31.1668 40.0717C30.789 40.0717 30.4723 39.9439 30.2168 39.6883C29.9612 39.4328 29.8335 39.1161 29.8335 38.7383C29.8335 38.3605 29.9612 38.0439 30.2168 37.7883C30.4723 37.5328 30.789 37.405 31.1668 37.405C31.5446 37.405 31.8612 37.5328 32.1168 37.7883C32.3723 38.0439 32.5001 38.3605 32.5001 38.7383C32.5001 39.1161 32.3723 39.4328 32.1168 39.6883C31.8612 39.9439 31.5446 40.0717 31.1668 40.0717ZM41.8335 40.0717C41.4557 40.0717 41.139 39.9439 40.8835 39.6883C40.6279 39.4328 40.5001 39.1161 40.5001 38.7383C40.5001 38.3605 40.6279 38.0439 40.8835 37.7883C41.139 37.5328 41.4557 37.405 41.8335 37.405C42.2112 37.405 42.5279 37.5328 42.7835 37.7883C43.039 38.0439 43.1668 38.3605 43.1668 38.7383C43.1668 39.1161 43.039 39.4328 42.7835 39.6883C42.5279 39.9439 42.2112 40.0717 41.8335 40.0717ZM36.5001 45.405C36.1223 45.405 35.8057 45.2772 35.5501 45.0217C35.2946 44.7661 35.1668 44.4494 35.1668 44.0717C35.1668 43.6939 35.2946 43.3772 35.5501 43.1217C35.8057 42.8661 36.1223 42.7383 36.5001 42.7383C36.8779 42.7383 37.1946 42.8661 37.4501 43.1217C37.7057 43.3772 37.8335 43.6939 37.8335 44.0717C37.8335 44.4494 37.7057 44.7661 37.4501 45.0217C37.1946 45.2772 36.8779 45.405 36.5001 45.405ZM31.1668 45.405C30.789 45.405 30.4723 45.2772 30.2168 45.0217C29.9612 44.7661 29.8335 44.4494 29.8335 44.0717C29.8335 43.6939 29.9612 43.3772 30.2168 43.1217C30.4723 42.8661 30.789 42.7383 31.1668 42.7383C31.5446 42.7383 31.8612 42.8661 32.1168 43.1217C32.3723 43.3772 32.5001 43.6939 32.5001 44.0717C32.5001 44.4494 32.3723 44.7661 32.1168 45.0217C31.8612 45.2772 31.5446 45.405 31.1668 45.405ZM41.8335 45.405C41.4557 45.405 41.139 45.2772 40.8835 45.0217C40.6279 44.7661 40.5001 44.4494 40.5001 44.0717C40.5001 43.6939 40.6279 43.3772 40.8835 43.1217C41.139 42.8661 41.4557 42.7383 41.8335 42.7383C42.2112 42.7383 42.5279 42.8661 42.7835 43.1217C43.039 43.3772 43.1668 43.6939 43.1668 44.0717C43.1668 44.4494 43.039 44.7661 42.7835 45.0217C42.5279 45.2772 42.2112 45.405 41.8335 45.405Z" fill="url(#paint0_linear_7_541)"/>
  </g>
  <defs>
  <linearGradient id="paint0_linear_7_541" x1="24.5585" y1="37.2587" x2="48.5585" y2="37.2587" gradientUnits="userSpaceOnUse">
  <stop stop-color="#1A46B5"/>
  <stop offset="1" stop-color="#3C9AFE"/>
  </linearGradient>
  </defs>
  </svg>
  