<svg width="48" height="49" viewBox="0 0 48 49" fill="none" xmlns="http://www.w3.org/2000/svg">
<rect y="0.434082" width="48" height="48" rx="4" fill="url(#paint0_linear_7_674)"/>
<path d="M18.94 17.4341C18.9397 17.9645 18.7288 18.4731 18.3535 18.848C17.9782 19.2229 17.4694 19.4334 16.939 19.4331C16.4086 19.4328 15.9 19.2219 15.5251 18.8466C15.1502 18.4714 14.9397 17.9625 14.94 17.4321C14.9403 16.9017 15.1512 16.3931 15.5265 16.0182C15.9018 15.6433 16.4106 15.4328 16.941 15.4331C17.4714 15.4334 17.98 15.6443 18.3549 16.0196C18.7298 16.3949 18.9403 16.9037 18.94 17.4341ZM19 20.9141H15V33.4341H19V20.9141ZM25.32 20.9141H21.34V33.4341H25.28V26.8641C25.28 23.2041 30.05 22.8641 30.05 26.8641V33.4341H34V25.5041C34 19.3341 26.94 19.5641 25.28 22.5941L25.32 20.9141Z" fill="#FCFCFC"/>
<defs>
<linearGradient id="paint0_linear_7_674" x1="0.116786" y1="24.1707" x2="48.1168" y2="24.1707" gradientUnits="userSpaceOnUse">
<stop stop-color="#3C9AFE"/>
<stop offset="1" stop-color="#B8D7F9"/>
</linearGradient>
</defs>
</svg>
