<svg width="48" height="49" viewBox="0 0 48 49" fill="none" xmlns="http://www.w3.org/2000/svg">
<rect y="0.434082" width="48" height="48" rx="4" fill="url(#paint0_linear_7_675)"/>
<path d="M25.028 14.4351C25.7577 14.4323 26.4875 14.4396 27.217 14.4571L27.411 14.4641C27.635 14.4721 27.856 14.4821 28.123 14.4941C29.187 14.5441 29.913 14.7121 30.55 14.9591C31.21 15.2131 31.766 15.5571 32.322 16.1131C32.8304 16.6127 33.2238 17.217 33.475 17.8841C33.722 18.5211 33.89 19.2481 33.94 20.3121C33.952 20.5781 33.962 20.8001 33.97 21.0241L33.976 21.2181C33.9938 21.9473 34.0014 22.6767 33.999 23.4061L34 24.1521V25.4621C34.0025 26.1918 33.9948 26.9215 33.977 27.6511L33.971 27.8451C33.963 28.0691 33.953 28.2901 33.941 28.5571C33.891 29.6211 33.721 30.3471 33.475 30.9841C33.2246 31.6518 32.8311 32.2567 32.322 32.7561C31.822 33.2644 31.2173 33.6578 30.55 33.9091C29.913 34.1561 29.187 34.3241 28.123 34.3741C27.856 34.3861 27.635 34.3961 27.411 34.4041L27.217 34.4101C26.4875 34.4278 25.7577 34.4355 25.028 34.4331L24.282 34.4341H22.973C22.2433 34.4365 21.5135 34.4289 20.784 34.4111L20.59 34.4051C20.3526 34.3965 20.1153 34.3865 19.878 34.3751C18.814 34.3251 18.088 34.1551 17.45 33.9091C16.7827 33.6584 16.1782 33.2649 15.679 32.7561C15.17 32.2564 14.7762 31.6516 14.525 30.9841C14.278 30.3471 14.11 29.6211 14.06 28.5571C14.0489 28.3198 14.0389 28.0824 14.03 27.8451L14.025 27.6511C14.0066 26.9216 13.9982 26.1918 14 25.4621V23.4061C13.9972 22.6767 14.0045 21.9473 14.022 21.2181L14.029 21.0241C14.037 20.8001 14.047 20.5781 14.059 20.3121C14.109 19.2471 14.277 18.5221 14.524 17.8841C14.7754 17.2167 15.17 16.6125 15.68 16.1141C16.1789 15.6048 16.783 15.2106 17.45 14.9591C18.088 14.7121 18.813 14.5441 19.878 14.4941L20.59 14.4641L20.784 14.4591C21.5132 14.4406 22.2426 14.4323 22.972 14.4341L25.028 14.4351ZM24 19.4351C23.3375 19.4257 22.6798 19.5481 22.065 19.7951C21.4502 20.0422 20.8906 20.4089 20.4188 20.8741C19.947 21.3393 19.5724 21.8936 19.3167 22.5048C19.061 23.1161 18.9293 23.772 18.9293 24.4346C18.9293 25.0971 19.061 25.7531 19.3167 26.3643C19.5724 26.9755 19.947 27.5298 20.4188 27.995C20.8906 28.4602 21.4502 28.827 22.065 29.074C22.6798 29.321 23.3375 29.4434 24 29.4341C25.3261 29.4341 26.5978 28.9073 27.5355 27.9696C28.4732 27.0319 29 25.7602 29 24.4341C29 23.108 28.4732 21.8362 27.5355 20.8985C26.5978 19.9609 25.3261 19.4351 24 19.4351ZM24 21.4351C24.3985 21.4277 24.7945 21.4999 25.1648 21.6473C25.5351 21.7947 25.8723 22.0144 26.1568 22.2936C26.4412 22.5728 26.6672 22.9059 26.8214 23.2734C26.9757 23.6409 27.0552 24.0355 27.0553 24.4341C27.0553 24.8326 26.976 25.2272 26.8218 25.5948C26.6677 25.9623 26.4418 26.2955 26.1575 26.5748C25.8731 26.8541 25.536 27.0739 25.1657 27.2215C24.7955 27.369 24.3995 27.4413 24.001 27.4341C23.2053 27.4341 22.4423 27.118 21.8797 26.5554C21.3171 25.9928 21.001 25.2297 21.001 24.4341C21.001 23.6384 21.3171 22.8754 21.8797 22.3127C22.4423 21.7501 23.2053 21.4341 24.001 21.4341L24 21.4351ZM29.25 17.9351C28.9274 17.948 28.6223 18.0852 28.3986 18.318C28.1749 18.5509 28.05 18.8612 28.05 19.1841C28.05 19.5069 28.1749 19.8173 28.3986 20.0501C28.6223 20.2829 28.9274 20.4202 29.25 20.4331C29.5815 20.4331 29.8995 20.3014 30.1339 20.067C30.3683 19.8325 30.5 19.5146 30.5 19.1831C30.5 18.8515 30.3683 18.5336 30.1339 18.2992C29.8995 18.0648 29.5815 17.9331 29.25 17.9331V17.9351Z" fill="#FCFCFC"/>
<defs>
<linearGradient id="paint0_linear_7_675" x1="0.116786" y1="24.1707" x2="48.1168" y2="24.1707" gradientUnits="userSpaceOnUse">
<stop stop-color="#3C9AFE"/>
<stop offset="1" stop-color="#B8D7F9"/>
</linearGradient>
</defs>
</svg>
