<svg width="73" height="74" viewBox="0 0 73 74" fill="none" xmlns="http://www.w3.org/2000/svg">
<rect y="0.750244" width="73" height="73" rx="36.5" fill="#C3E0FF"/>
<mask id="mask0_7_688" style="mask-type:alpha" maskUnits="userSpaceOnUse" x="20" y="21" width="33" height="33">
<rect x="20.5" y="21.2502" width="32" height="32" fill="#D9D9D9"/>
</mask>
<g mask="url(#mask0_7_688)">
<path d="M25.8334 47.9168C25.1 47.9168 24.4722 47.6557 23.95 47.1335C23.4278 46.6113 23.1667 45.9835 23.1667 45.2502V29.2502C23.1667 28.5168 23.4278 27.8891 23.95 27.3668C24.4722 26.8446 25.1 26.5835 25.8334 26.5835H47.1667C47.9 26.5835 48.5278 26.8446 49.05 27.3668C49.5722 27.8891 49.8334 28.5168 49.8334 29.2502V45.2502C49.8334 45.9835 49.5722 46.6113 49.05 47.1335C48.5278 47.6557 47.9 47.9168 47.1667 47.9168H25.8334ZM47.1667 31.9168L37.2 38.1502C37.0889 38.2168 36.9722 38.2668 36.85 38.3002C36.7278 38.3335 36.6111 38.3502 36.5 38.3502C36.3889 38.3502 36.2722 38.3335 36.15 38.3002C36.0278 38.2668 35.9111 38.2168 35.8 38.1502L25.8334 31.9168V45.2502H47.1667V31.9168ZM36.5 35.9168L47.1667 29.2502H25.8334L36.5 35.9168ZM25.8334 32.2502V30.2835V30.3168V30.3002V32.2502Z" fill="url(#paint0_linear_7_688)"/>
</g>
<defs>
<linearGradient id="paint0_linear_7_688" x1="23.2316" y1="37.1331" x2="49.8982" y2="37.1331" gradientUnits="userSpaceOnUse">
<stop stop-color="#1A46B5"/>
<stop offset="1" stop-color="#3C9AFE"/>
</linearGradient>
</defs>
</svg>
