<svg width="73" height="74" viewBox="0 0 73 74" fill="none" xmlns="http://www.w3.org/2000/svg">
  <rect x="0.00012207" y="0.905029" width="73" height="73" rx="36.5" fill="#C3E0FF"/>
  <mask id="mask0_7_549" style="mask-type:alpha" maskUnits="userSpaceOnUse" x="20" y="21" width="33" height="33">
  <rect x="20.5001" y="21.405" width="32" height="32" fill="#D9D9D9"/>
  </mask>
  <g mask="url(#mask0_7_549)">
  <path d="M36.5001 47.205C39.2112 44.7161 41.2223 42.455 42.5335 40.4217C43.8446 38.3883 44.5001 36.5828 44.5001 35.005C44.5001 32.5828 43.7279 30.5994 42.1835 29.055C40.639 27.5105 38.7446 26.7383 36.5001 26.7383C34.2557 26.7383 32.3612 27.5105 30.8168 29.055C29.2723 30.5994 28.5001 32.5828 28.5001 35.005C28.5001 36.5828 29.1557 38.3883 30.4668 40.4217C31.7779 42.455 33.789 44.7161 36.5001 47.205ZM36.5001 49.8383C36.189 49.8383 35.8779 49.7828 35.5668 49.6717C35.2557 49.5605 34.9779 49.3939 34.7335 49.1717C33.289 47.8383 32.0112 46.5383 30.9001 45.2717C29.789 44.005 28.8612 42.7772 28.1168 41.5883C27.3723 40.3994 26.8057 39.255 26.4168 38.155C26.0279 37.055 25.8335 36.005 25.8335 35.005C25.8335 31.6717 26.9057 29.0161 29.0501 27.0383C31.1946 25.0605 33.6779 24.0717 36.5001 24.0717C39.3223 24.0717 41.8057 25.0605 43.9501 27.0383C46.0946 29.0161 47.1668 31.6717 47.1668 35.005C47.1668 36.005 46.9723 37.055 46.5835 38.155C46.1946 39.255 45.6279 40.3994 44.8835 41.5883C44.139 42.7772 43.2112 44.005 42.1001 45.2717C40.989 46.5383 39.7112 47.8383 38.2668 49.1717C38.0223 49.3939 37.7446 49.5605 37.4335 49.6717C37.1223 49.7828 36.8112 49.8383 36.5001 49.8383ZM36.5001 37.405C37.2335 37.405 37.8612 37.1439 38.3835 36.6217C38.9057 36.0994 39.1668 35.4717 39.1668 34.7383C39.1668 34.005 38.9057 33.3772 38.3835 32.855C37.8612 32.3328 37.2335 32.0717 36.5001 32.0717C35.7668 32.0717 35.139 32.3328 34.6168 32.855C34.0946 33.3772 33.8335 34.005 33.8335 34.7383C33.8335 35.4717 34.0946 36.0994 34.6168 36.6217C35.139 37.1439 35.7668 37.405 36.5001 37.405Z" fill="url(#paint0_linear_7_549)"/>
  </g>
  <defs>
  <linearGradient id="paint0_linear_7_549" x1="25.8854" y1="36.8136" x2="47.2187" y2="36.8136" gradientUnits="userSpaceOnUse">
  <stop stop-color="#1A46B5"/>
  <stop offset="1" stop-color="#3C9AFE"/>
  </linearGradient>
  </defs>
  </svg>
  