<svg width="73" height="74" viewBox="0 0 73 74" fill="none" xmlns="http://www.w3.org/2000/svg">
<rect y="0.750244" width="73" height="73" rx="36.5" fill="#C3E0FF"/>
<mask id="mask0_7_680" style="mask-type:alpha" maskUnits="userSpaceOnUse" x="20" y="21" width="33" height="33">
<rect x="20.5" y="21.2502" width="32" height="32" fill="#D9D9D9"/>
</mask>
<g mask="url(#mask0_7_680)">
<path d="M47.1 49.2502C44.3222 49.2502 41.5778 48.6447 38.8667 47.4336C36.1556 46.2225 33.6889 44.5058 31.4667 42.2836C29.2444 40.0614 27.5278 37.5947 26.3167 34.8836C25.1056 32.1725 24.5 29.428 24.5 26.6502C24.5 26.2502 24.6333 25.9169 24.9 25.6502C25.1667 25.3836 25.5 25.2502 25.9 25.2502H31.3C31.6111 25.2502 31.8889 25.3558 32.1333 25.5669C32.3778 25.778 32.5222 26.028 32.5667 26.3169L33.4333 30.9836C33.4778 31.3391 33.4667 31.6391 33.4 31.8836C33.3333 32.128 33.2111 32.3391 33.0333 32.5169L29.8 35.7836C30.2444 36.6058 30.7722 37.4002 31.3833 38.1669C31.9944 38.9336 32.6667 39.6725 33.4 40.3836C34.0889 41.0725 34.8111 41.7114 35.5667 42.3002C36.3222 42.8891 37.1222 43.428 37.9667 43.9169L41.1 40.7836C41.3 40.5836 41.5611 40.4336 41.8833 40.3336C42.2056 40.2336 42.5222 40.2058 42.8333 40.2502L47.4333 41.1836C47.7444 41.2725 48 41.4336 48.2 41.6669C48.4 41.9002 48.5 42.1614 48.5 42.4502V47.8502C48.5 48.2502 48.3667 48.5836 48.1 48.8502C47.8333 49.1169 47.5 49.2502 47.1 49.2502ZM28.5333 33.2502L30.7333 31.0502L30.1667 27.9169H27.2C27.3111 28.828 27.4667 29.728 27.6667 30.6169C27.8667 31.5058 28.1556 32.3836 28.5333 33.2502ZM40.4667 45.1836C41.3333 45.5614 42.2167 45.8614 43.1167 46.0836C44.0167 46.3058 44.9222 46.4502 45.8333 46.5169V43.5836L42.7 42.9502L40.4667 45.1836Z" fill="url(#paint0_linear_7_680)"/>
</g>
<defs>
<linearGradient id="paint0_linear_7_680" x1="24.5584" y1="37.1186" x2="48.5584" y2="37.1186" gradientUnits="userSpaceOnUse">
<stop stop-color="#1A46B5"/>
<stop offset="1" stop-color="#3C9AFE"/>
</linearGradient>
</defs>
</svg>
