<svg width="48" height="49" viewBox="0 0 48 49" fill="none" xmlns="http://www.w3.org/2000/svg">
<rect y="0.434082" width="48" height="48" rx="4" fill="url(#paint0_linear_7_673)"/>
<path d="M34.212 18.09C33.4489 18.4276 32.6396 18.6494 31.811 18.748C32.6841 18.2251 33.3373 17.4027 33.649 16.434C32.829 16.922 31.93 17.264 30.994 17.449C30.3646 16.7756 29.5304 16.329 28.621 16.1786C27.7116 16.0282 26.7779 16.1825 25.9653 16.6175C25.1526 17.0524 24.5064 17.7437 24.1271 18.5838C23.7478 19.4239 23.6567 20.3658 23.868 21.263C22.2049 21.1798 20.578 20.7477 19.0927 19.9949C17.6075 19.242 16.2972 18.1852 15.247 16.893C14.8753 17.5315 14.68 18.2572 14.681 18.996C14.681 20.446 15.42 21.727 16.541 22.477C15.877 22.4561 15.2276 22.2768 14.647 21.954V22.005C14.647 22.9709 14.981 23.907 15.5925 24.6547C16.204 25.4023 17.0553 25.9155 18.002 26.107C17.3856 26.2742 16.7393 26.2988 16.112 26.179C16.3789 27.0104 16.8992 27.7375 17.6 28.2584C18.3008 28.7793 19.147 29.068 20.02 29.084C19.1524 29.7655 18.1589 30.2692 17.0964 30.5664C16.0339 30.8636 14.9233 30.9484 13.828 30.816C15.7397 32.0454 17.9651 32.6981 20.238 32.696C27.932 32.696 32.138 26.323 32.138 20.796C32.138 20.616 32.134 20.434 32.126 20.255C32.9444 19.6634 33.6508 18.9296 34.212 18.09Z" fill="#FCFCFC"/>
<defs>
<linearGradient id="paint0_linear_7_673" x1="0.116786" y1="24.1707" x2="48.1168" y2="24.1707" gradientUnits="userSpaceOnUse">
<stop stop-color="#3C9AFE"/>
<stop offset="1" stop-color="#B8D7F9"/>
</linearGradient>
</defs>
</svg>
