<svg width="789" height="621" viewBox="0 0 789 621" fill="none" xmlns="http://www.w3.org/2000/svg">
<g opacity="0.3" filter="url(#filter0_f_7_654)">
<path d="M703.261 364.621C700.314 360.313 697.384 357.088 694.551 353.969C689.35 348.242 684.857 343.297 681.653 333.332C677.263 319.68 675.388 304.124 673.575 289.081C673.056 284.783 672.545 280.545 671.984 276.429C665.169 226.434 678.682 183.075 715.803 135.84C718.517 132.386 723.175 127.352 729.074 120.978C752.376 95.7979 791.378 53.6526 783.722 28.8983C781.122 20.4881 773.281 14.7484 760.467 11.8558C702.964 -1.13668 633.211 5.46665 577.165 10.7724C510.761 17.059 440.27 26.1706 374.657 50.0685C337.134 63.7337 292.11 84.6823 276.866 125.729C266.503 153.626 273.491 182.344 280.246 210.117C280.764 212.246 281.281 214.367 281.787 216.482L282.499 219.441C288.882 245.896 294.394 268.744 264.534 279.802C233.954 291.13 196.391 289.044 163.249 287.204C155.652 286.782 148.476 286.384 141.422 286.132C134.131 285.873 125.761 285.194 116.899 284.474C84.1687 281.818 43.4347 278.511 18.4301 293.243C11.2574 297.469 7.40063 302.869 5.76171 308.901C5.64247 308.828 5.52476 308.753 5.40532 308.68L4.57899 310.05C4.84365 310.211 5.10432 310.377 5.36878 310.538C2.48257 324.762 11.0683 342.133 17.941 356.019L18.7714 357.7C26.6144 373.589 35.7843 388.805 46.1573 403.316L45.8745 403.829C46.2487 404.037 46.6175 404.254 46.9917 404.462C64.1894 428.308 84.6847 450.215 108.183 469.897C107.988 469.838 107.794 469.774 107.599 469.715L107.14 471.248C108.595 471.684 110.043 472.136 111.487 472.598C128.603 486.621 147.253 499.486 167.31 511.106L167.321 512.017C167.849 512.01 168.372 512.028 168.898 512.03C191.329 524.903 215.501 536.217 241.233 545.848C241.56 546.081 241.889 546.314 242.216 546.547C243.93 547.764 245.648 548.984 247.368 550.205C281.176 576.555 316.554 601.206 356.154 614.568C356.161 614.57 356.168 614.573 356.174 614.575L356.431 613.817L356.259 614.599C356.264 614.599 356.27 614.6 356.275 614.601L356.322 614.61C360.501 615.486 364.673 616.035 368.835 616.303C369.881 616.431 370.788 616.485 371.453 616.436C405.715 617.655 439.166 599.541 469.155 576.864C485.251 573.892 500.636 569.227 515.292 563.279C515.523 563.365 515.754 563.437 515.985 563.527L516.229 562.896C580.05 536.703 629.982 486.435 664.37 447.415C666.973 444.46 670.023 441.221 673.252 437.79C692.818 417.002 719.615 388.532 703.261 364.621ZM701.218 399.924C695.726 400.742 690.313 401.954 684.972 403.493C691.263 390.142 693.409 376.323 686.078 363.653C685.73 363.052 685.363 362.462 684.977 361.881C690.112 361.883 695.315 362.438 700.58 363.615C701.034 364.232 701.488 364.862 701.942 365.527C709.313 376.303 707.355 388.211 701.218 399.924ZM509.545 559.797C508.331 559.485 507.12 559.215 505.911 558.981C534.284 547.278 561.883 529.415 588.543 505.512C591.746 504.386 594.987 503.326 598.266 502.335C569.059 528.497 539.609 547.572 509.545 559.797ZM438.619 593.089C438.224 593.297 437.825 593.514 437.428 593.731C436.736 594.107 436.034 594.485 435.355 594.818C436.425 594.217 437.492 593.609 438.555 592.994C438.576 593.026 438.598 593.056 438.619 593.089ZM32.6768 306.787C50.9063 290.912 90.2391 292.001 118.96 292.797C124.798 292.959 130.313 293.112 134.913 293.086C141.813 293.047 150.632 293.461 160.798 293.958C160.723 295.407 160.675 296.859 160.665 298.32C151.798 298.781 142.833 299.288 133.982 299.939C130.4 300.201 126.133 300.388 121.615 300.584C97.6036 301.629 61.3188 303.207 47.0865 320.244C43.7931 324.185 41.9383 328.634 41.1087 333.352C35.6799 329.141 30.1655 325.064 24.5519 321.15C25.5296 315.782 28.0046 310.855 32.6768 306.787ZM314.998 244.684C315.047 243.998 315.077 243.311 315.12 242.624C323.245 248.539 330.392 254.167 332.703 257.212C332.015 258.444 331.284 259.635 330.491 260.766C319.818 275.974 297.103 282.894 276.512 286.959C297.965 279.785 313.362 266.978 314.998 244.684ZM648.298 287.766C650.798 304.084 654.211 322.807 663.105 338.487C666.031 343.644 670.237 347.908 674.306 352.032C677.036 354.8 679.652 357.468 681.886 360.339C676.706 360.553 671.603 361.309 666.578 362.532C662.574 354.797 658.123 347.713 653.799 340.835C645.016 326.865 636.721 313.671 632.25 295.921C631.848 294.329 631.483 292.741 631.134 291.154C636.736 289.112 642.457 287.226 647.971 285.427C648.079 286.206 648.179 286.984 648.298 287.766ZM664.545 411.104C658.906 413.671 653.35 416.563 647.88 419.749C654.045 404.491 656.215 388.475 650.571 372.602C650.287 371.805 649.978 371.017 649.679 370.225C654.931 367.793 660.286 365.821 665.735 364.406C666.146 365.216 666.558 366.023 666.957 366.848C673.91 381.188 671.291 396.485 664.545 411.104ZM631.515 458.292C617.224 475.462 602.61 490.73 587.706 504.115C583.301 505.671 578.971 507.36 574.691 509.145C589.561 497.197 603.559 483.491 616.585 467.95C627.886 454.466 639.624 438.831 646.834 422.23C652.294 418.976 657.836 416.004 663.462 413.364C655.549 429.44 642.94 444.585 632.939 456.586L631.515 458.292ZM466.315 575.641C466.165 575.708 466.009 575.769 465.858 575.835C465.805 575.845 465.752 575.855 465.7 575.864C466.768 575.15 467.832 574.438 468.892 573.725C469.21 573.662 469.529 573.601 469.847 573.537C468.81 574.341 467.642 575.05 466.315 575.641ZM48.3104 321.268C62.0929 304.775 97.9527 303.214 121.682 302.182C126.214 301.985 130.492 301.799 134.097 301.534C142.909 300.887 151.838 300.382 160.672 299.922C160.698 302.763 160.843 305.625 161.095 308.504C153.638 309.375 146.345 310.316 139.179 311.422C136.608 311.819 133.6 312.216 130.286 312.652C108.44 315.531 75.4286 319.882 64.4405 336.64C61.9881 340.38 60.58 344.48 59.9397 348.759C54.2375 343.856 48.4457 339.085 42.5509 334.474C43.2564 329.687 45.0296 325.194 48.3104 321.268ZM257.615 291.821C270.829 289.745 287.8 287.074 302.768 281.534C267.183 297.33 225.514 301.688 184.937 305.919C177.328 306.712 169.932 307.488 162.683 308.322C162.436 305.475 162.292 302.645 162.268 299.838C165.738 299.659 169.193 299.486 172.615 299.316C199.623 297.973 227.553 296.585 254.732 292.276L257.615 291.821ZM344.218 223.473C346.115 213.404 348.075 202.991 351.761 194.598C363.426 168.037 384.414 145.127 414.142 126.502C416.953 124.741 419.847 123.031 422.778 121.344C423.419 130.648 422.744 139.597 420.749 148.225C416.801 151.073 413.009 153.977 409.438 156.937C391.45 171.847 380.689 192.125 370.279 211.734C360.288 230.559 350.777 248.461 335.514 261.713C335.47 260.875 335.325 259.814 335.055 258.349C334.993 258.011 334.812 257.613 334.543 257.17C339.682 247.515 341.986 235.324 344.218 223.473ZM654.479 168.461C647.453 171.566 640.374 174.547 633.351 177.5C628.135 179.694 622.848 181.921 617.589 184.197C617.733 183.71 617.872 183.227 618.016 182.738C624.299 161.315 630.796 139.163 621.693 123.159C616.946 114.814 608.426 109.01 595.823 105.424C604.369 101.792 612.911 98.22 621.298 94.7189C634.531 89.1952 648.058 83.5257 661.5 77.6597C662.38 77.8504 663.241 78.0535 664.07 78.2757C673.603 80.83 679.853 85.502 682.669 92.1891C690.617 111.069 670.651 142.769 657.439 163.745C656.402 165.391 655.416 166.959 654.479 168.461ZM461.899 576.474C460.593 576.673 459.276 576.857 457.957 577.038C457.947 576.934 457.925 576.827 457.912 576.723C460.115 576.063 462.294 575.352 464.44 574.574C464.579 574.549 464.72 574.528 464.859 574.503C463.876 575.161 462.889 575.817 461.899 576.474ZM418.534 600.292C418.519 600.283 418.5 600.273 418.485 600.264C419.825 600.132 421.152 599.982 422.454 599.794C421.578 600.221 420.702 600.639 419.824 601.052C419.456 600.82 419.039 600.576 418.534 600.292ZM417.749 601.687C417.856 601.747 417.965 601.809 418.074 601.87C416.039 602.802 413.994 603.687 411.941 604.533C408.588 605.033 404.909 605.213 400.995 605.136C403.049 603.775 405.067 602.323 407.041 600.763C409.989 600.779 412.888 600.696 415.72 600.5C416.463 600.955 417.159 601.355 417.749 601.687ZM285.727 573.065C289.151 574.354 293.05 575.716 297.125 577.074C297.261 577.177 297.396 577.279 297.532 577.382C294.626 577.559 293.048 577.747 292.176 577.955C290.012 576.354 287.864 574.721 285.727 573.065ZM252.819 550.491C253.821 550.873 254.835 551.247 255.857 551.616C255.83 551.704 255.797 551.793 255.774 551.881C254.754 551.42 253.77 550.956 252.819 550.491ZM65.7749 337.516C76.3612 321.372 110.248 316.906 130.494 314.238C133.82 313.799 136.841 313.401 139.421 313.003C146.548 311.902 153.808 310.966 161.232 310.099C161.633 314.09 162.243 318.111 163.017 322.146C156.397 323.615 149.793 325.137 143.296 326.792C141.291 327.303 139.048 327.835 136.635 328.41C118.398 332.748 90.8345 339.303 82.3 355.699C80.6287 358.91 79.6943 362.454 79.2915 366.165C73.4172 360.656 67.4556 355.261 61.3943 350.012C61.9244 345.573 63.2718 341.334 65.7749 337.516ZM329.016 268.747C328.953 268.892 328.888 269.042 328.824 269.194C325.865 271.326 322.749 273.377 319.425 275.323C280.736 297.967 236.267 307.022 193.262 315.778C183.807 317.703 174.175 319.684 164.576 321.797C163.813 317.815 163.214 313.85 162.819 309.916C170.075 309.081 177.481 308.304 185.102 307.509C235.983 302.205 288.58 296.711 329.016 268.747ZM371.689 212.484C382.025 193.012 392.713 172.877 410.455 158.169C413.538 155.613 416.785 153.097 420.153 150.625C419.494 153.147 418.735 155.646 417.848 158.115C416.418 162.095 415.122 166.005 413.878 169.892C410.027 173.221 406.396 176.628 403.058 180.076C391.152 192.369 381.996 205.777 373.144 218.743C361.04 236.471 349.473 253.382 331.739 267.018C331.878 266.812 332.012 266.641 332.144 266.475C350.277 252.77 360.702 233.186 371.689 212.484ZM616.482 182.289C616.213 183.205 615.949 184.113 615.682 185.026C608.637 188.098 601.664 191.265 595.013 194.586C590.685 196.748 586.696 198.935 582.989 201.177C580.193 166.838 574.045 141.759 536.97 131.66C545.966 127.189 555.506 122.999 565.368 118.674C568.329 117.376 571.312 116.068 574.307 114.739C580.656 111.924 587.077 109.157 593.5 106.418C606.76 109.851 615.54 115.577 620.305 123.952C629.072 139.365 622.673 161.186 616.482 182.289ZM581.77 206.165C583.889 235.503 589.961 265.961 601.332 304.093C596.89 307.377 592.724 311.164 588.814 315.347C586.834 307.72 584.939 299.709 582.974 291.371C577.324 267.422 571.344 242.134 561.857 219.76C567.484 213.956 573.904 208.789 581.602 203.924C581.659 204.669 581.715 205.411 581.77 206.165ZM626.577 433.759C620.383 438.272 614.298 443.067 608.318 448.057C613.908 430.956 613.947 414.176 611.069 396.765C617.341 391.137 623.847 385.894 630.564 381.266C631.077 383.18 631.549 385.097 631.96 387.018C635.111 401.732 633.293 417.358 626.577 433.759ZM599.032 476.967C585.075 493.373 570.278 507.023 554.91 518.289C553.287 519.112 551.67 519.95 550.057 520.8C562.094 511.619 573.352 501.104 583.761 489.208C595.296 476.027 602.785 463.411 607.301 450.991C613.215 445.994 619.231 441.177 625.353 436.633C619.612 449.623 610.838 463.088 599.032 476.967ZM409.928 592.917C409.106 592.921 408.283 592.918 407.458 592.91C403.753 590.8 399.73 589.13 395.597 587.726C395.668 587.613 395.736 587.497 395.805 587.383C403.862 587.863 411.566 587.932 418.901 587.577C418.829 587.653 418.76 587.734 418.688 587.809C415.78 589.526 412.859 591.238 409.928 592.917ZM281.715 563.319C281.871 563.27 282.003 563.222 282.164 563.171C284.127 563.776 286.132 564.376 288.167 564.974C289.246 566.189 290.335 567.388 291.431 568.576C289.701 568.008 288.022 567.447 286.404 566.894C284.844 565.702 283.281 564.51 281.715 563.319ZM281.542 565.198C280.667 564.886 279.814 564.577 278.981 564.271C279.267 564.162 279.57 564.05 279.885 563.938C280.438 564.358 280.99 564.778 281.542 565.198ZM83.7174 356.438C91.9135 340.69 119.049 334.236 137.005 329.966C139.425 329.39 141.676 328.855 143.688 328.342C150.157 326.694 156.735 325.178 163.33 323.715C164.404 329.018 165.761 334.343 167.344 339.659C160.417 341.931 153.519 344.308 146.714 346.846C118.348 357.423 103.946 369.518 101.181 387.512C94.4741 380.739 87.6748 374.066 80.7588 367.544C81.0585 363.576 81.9649 359.805 83.7174 356.438ZM605.885 450.099C599.921 455.151 594.065 460.382 588.308 465.7C594.323 448.797 595.092 431.875 593.043 414.49C598.363 408.828 603.901 403.289 609.638 398.058C612.424 415.714 612.107 432.726 605.885 450.099ZM379.883 611.951C378.579 611.792 377.149 611.616 375.659 611.426C376.335 611.016 376.999 610.585 377.643 610.12C378.984 609.662 380.322 609.174 381.66 608.661C384.298 608.995 386.938 609.299 389.584 609.577C387.185 610.632 384.736 611.524 382.239 612.241C381.501 612.149 380.724 612.053 379.883 611.951ZM287.411 561.691C287.933 561.557 288.467 561.421 289.018 561.286C290.086 561.579 291.138 561.891 292.21 562.179L292.649 562.297C293.204 562.446 293.742 562.576 294.296 562.723C295.71 563.895 297.121 565.083 298.53 566.29C295.469 565.444 292.3 564.544 289.08 563.598C288.52 562.967 287.965 562.33 287.411 561.691ZM286.211 562.746C285.783 562.617 285.355 562.489 284.925 562.359C285.174 562.289 285.435 562.219 285.692 562.149C285.865 562.349 286.038 562.547 286.211 562.746ZM147.271 348.345C154.043 345.821 160.909 343.454 167.807 341.191C169.772 347.618 172.051 354.026 174.526 360.361C168.351 363.07 162.224 365.888 156.206 368.888C134.495 379.713 123.175 391.743 120.924 407.925C114.907 401.579 108.833 395.269 102.685 389.035C104.97 370.918 119.038 358.873 147.271 348.345ZM585.624 468.186C580.243 473.208 574.952 478.289 569.743 483.357C575.679 467.728 576.623 451.598 574.898 435.04C580.175 428.747 585.746 422.335 591.586 416.051C593.507 433.759 592.387 450.982 585.624 468.186ZM565.964 500.237C556.131 511.797 545.423 521.47 534.105 529.541C539.796 524.85 545.275 519.68 550.496 513.972C558.535 505.181 564.282 496.2 568.25 487.046C573.455 481.96 578.747 476.849 584.126 471.786C579.97 481.238 574.081 490.696 565.964 500.237ZM476.499 565.569C476.565 565.242 476.59 564.9 476.639 564.566C479.292 563.562 481.9 562.498 484.443 561.35C483.785 561.786 483.114 562.236 482.451 562.679C480.51 563.693 478.527 564.658 476.499 565.569ZM376.764 608.72C374.883 609.356 372.998 609.917 371.113 610.431C370.025 610.153 368.906 609.859 367.734 609.533C368.779 608.795 369.826 608.003 370.874 607.152C373.079 607.496 375.301 607.815 377.529 608.122C377.273 608.319 377.025 608.531 376.764 608.72ZM314.65 578.539C316.022 578.535 317.427 578.537 318.868 578.547C320.024 578.87 321.165 579.188 322.286 579.497C323.119 581.048 323.978 582.572 324.866 584.068C322.907 583.503 320.836 582.895 318.691 582.252C317.352 581.019 316.005 579.78 314.65 578.539ZM315.176 581.191C312.477 580.367 309.708 579.505 306.945 578.627C308.63 578.592 310.42 578.566 312.296 578.551C313.259 579.432 314.22 580.312 315.176 581.191ZM258.454 550.039C258.685 549.716 258.938 549.392 259.232 549.06C259.543 549.156 259.854 549.251 260.166 549.345C261.454 550.262 262.739 551.187 264.022 552.118C262.31 551.561 260.591 551.011 258.893 550.44C258.745 550.307 258.6 550.172 258.454 550.039ZM156.917 370.32C162.892 367.342 168.978 364.543 175.113 361.85C177.745 368.494 180.577 375.052 183.481 381.455C162.161 394.41 145.584 410.104 142.039 430.471C135.542 423.478 129.007 416.464 122.406 409.486C124.201 393.145 135.251 381.123 156.917 370.32ZM566.867 486.163C563.525 489.429 560.215 492.684 556.942 495.903C554.66 498.149 552.416 500.355 550.186 502.541C555.901 488.655 557.001 473.775 555.667 458.66C556.572 457.535 557.485 456.399 558.415 455.243C563.1 449.413 568.122 443.168 573.451 436.772C575.031 453.742 573.692 470.237 566.867 486.163ZM425.936 579.554C417.771 579.74 409.36 579.584 400.733 579.138C400.745 579.117 400.757 579.096 400.769 579.075C400.834 579.026 400.9 578.978 400.965 578.929C409.756 579.362 418.157 579.311 426.181 578.801C426.254 578.864 426.327 578.929 426.4 578.993C426.246 579.181 426.091 579.368 425.936 579.554ZM368.809 599.316C368.635 599.268 368.469 599.224 368.295 599.176C365.005 598.278 361.586 597.448 358.117 596.654C358.11 595.841 358.096 595.029 358.079 594.217C361.823 595.055 365.696 595.867 369.646 596.62C369.384 597.536 369.104 598.435 368.809 599.316ZM348.166 607.65C348.931 607.881 349.697 608.108 350.469 608.322C350.97 608.967 351.442 609.561 351.894 610.121C351.819 610.099 351.742 610.076 351.668 610.054C350.519 609.303 349.354 608.507 348.166 607.65ZM331.633 591.481C330.5 589.933 329.416 588.326 328.361 586.686C330.38 587.265 331.89 587.686 332.697 587.902L332.898 587.956C333.862 588.21 334.869 588.475 335.896 588.745C336.955 590.157 337.994 591.552 339.008 592.92C337.31 592.646 335.599 592.396 333.889 592.148C333.159 591.936 332.409 591.715 331.633 591.481ZM145.639 455.407C143.244 447.772 142.53 440.684 143.203 434.075C144.016 434.951 144.831 435.828 145.644 436.704C150.888 442.354 156.215 448.082 161.565 453.799C160.783 459.679 161.144 465.915 162.888 472.541C164.083 477.085 165.787 481.341 167.884 485.362C163.586 482.025 159.267 478.697 154.93 475.379C151.055 469.273 147.907 462.637 145.639 455.407ZM184.156 382.932C187.766 390.836 191.46 398.501 194.978 405.794C195.277 406.414 195.563 407.01 195.858 407.624C178.607 419.724 165.052 434.121 161.878 451.792C156.817 446.38 151.777 440.962 146.815 435.615C145.698 434.412 144.579 433.207 143.46 432.001C146.478 411.627 162.879 395.911 184.156 382.932ZM547.045 505.607C541.547 510.978 536.185 516.129 530.911 521.031C536.099 509.388 537.15 496.504 536.022 483.522C540.798 477.229 545.385 471.301 549.743 465.975C551.191 464.204 552.677 462.369 554.196 460.486C555.375 476.132 553.813 491.466 547.045 505.607ZM453.261 568.598C452.044 569.174 450.829 569.767 449.616 570.372C444.39 571.338 438.993 572.081 433.433 572.608C433.849 572.051 434.262 571.494 434.674 570.934C441.002 570.332 447.135 569.441 453.103 568.314C453.156 568.408 453.209 568.503 453.261 568.598ZM356.303 606.309C355.533 606.104 354.767 605.905 354.005 605.707C353.795 605.128 353.606 604.538 353.406 603.954C354.404 604.163 355.381 604.383 356.391 604.585C356.366 605.16 356.336 605.734 356.303 606.309ZM352.806 602.193C352.405 600.956 352.026 599.706 351.663 598.448C353.264 598.848 354.881 599.245 356.512 599.639C356.503 600.747 356.479 601.853 356.446 602.96C355.217 602.713 354.017 602.451 352.806 602.193ZM330.255 578.762C334.292 578.889 338.414 579.074 342.504 579.331C343.707 579.606 344.909 579.88 346.1 580.143C346.306 581.508 346.528 582.864 346.765 584.215C341.611 582.981 336.509 581.676 331.49 580.336C331.079 579.809 330.668 579.285 330.255 578.762ZM328.901 579.642C327.65 579.305 326.407 578.968 325.18 578.632C326.163 578.652 327.154 578.675 328.153 578.701C328.403 579.015 328.652 579.327 328.901 579.642ZM322.722 569.63C323.116 569.717 323.51 569.802 323.904 569.889C330.779 571.769 337.99 573.572 345.434 575.209C345.544 576.117 345.656 577.023 345.78 577.925C344.7 577.847 343.629 577.773 342.565 577.706C337.265 576.489 331.857 575.143 326.34 573.665C326.255 573.642 326.172 573.619 326.088 573.597C324.964 572.239 323.842 570.916 322.722 569.63ZM209.682 436.668C213.874 445.423 218.319 454.545 223.038 463.843C212.342 472.427 203.866 482.07 200.997 492.717C195.411 486.882 190.083 481.321 184.749 475.844C184.055 475.131 183.357 474.393 182.663 473.676C185.091 459.483 195.785 447.275 209.682 436.668ZM512.54 541.88C511.471 542.394 510.399 542.896 509.326 543.389C509.581 543.029 509.841 542.672 510.086 542.304C513.747 538.977 517.317 535.702 520.784 532.521C522.131 531.285 523.456 530.069 524.767 528.869C522.341 532.384 519.442 535.751 515.95 538.918C514.834 539.931 513.691 540.912 512.54 541.88ZM286.404 554.432C285.151 553.49 283.897 552.565 282.642 551.67C285.353 552.34 288.023 552.993 290.636 553.629C291.984 554.01 293.32 554.401 294.677 554.776C294.256 555.248 293.854 555.767 293.496 556.381C293.208 556.314 292.912 556.244 292.622 556.176C290.564 555.61 288.492 555.03 286.404 554.432ZM223.778 465.298C228.305 474.184 233.082 483.218 238.128 492.236C229.979 498.754 223.368 505.798 220.51 512.995C214.331 506.643 208.263 500.308 202.307 494.085C204.784 483.522 213.116 473.896 223.778 465.298ZM508.921 541.202C507.226 542.742 505.509 544.292 503.774 545.849C500.972 547.043 498.158 548.178 495.331 549.244C496.429 544.85 496.617 540.106 496.214 535.302C503.516 526.382 510.483 517.37 517.107 508.633C517.371 519.669 515.415 531.289 508.921 541.202ZM220.625 521.792C220.456 519.851 220.653 517.904 221.165 515.959C225.026 519.915 228.932 523.873 232.886 527.815C228.869 526.292 224.84 524.701 220.816 523.034C220.747 522.622 220.662 522.213 220.625 521.792ZM493.453 549.931C488.915 551.597 484.349 553.104 479.761 554.461C484.892 548.802 489.881 542.988 494.723 537.119C494.957 541.576 494.62 545.927 493.453 549.931ZM419.278 573.469C416.378 573.55 413.45 573.593 410.468 573.567C412.684 572.787 414.899 572.367 417.111 572.448C417.361 572.457 417.605 572.501 417.853 572.522C418.33 572.833 418.806 573.147 419.278 573.469ZM403.677 575.139C403.331 575.355 402.985 575.572 402.639 575.8C402.77 575.567 402.898 575.334 403.028 575.101C403.244 575.114 403.461 575.127 403.677 575.139ZM406.586 573.483C405.709 573.462 404.844 573.457 403.96 573.426C404.248 572.904 404.544 572.389 404.829 571.866C406.646 571.916 408.445 571.941 410.237 571.954C409.016 572.366 407.799 572.872 406.586 573.483ZM402.174 573.342C400.696 573.281 399.217 573.218 397.72 573.132C390.672 572.583 383.63 571.809 376.635 570.86C376.73 570.5 376.824 570.139 376.919 569.78C385.88 570.847 394.585 571.517 403.031 571.803C402.749 572.318 402.459 572.828 402.174 573.342ZM461.98 525.553C460.141 528.511 458.229 531.648 456.234 534.927C452.731 540.682 448.929 546.92 444.828 553.282C438.388 545.133 431.038 539.183 422.978 534.494C428.253 522.531 433.227 510.441 438.127 498.5C447.74 505.837 455.556 514.742 461.98 525.553ZM313.697 555.182C313.633 555.19 313.569 555.198 313.506 555.206C313.497 555.179 313.487 555.152 313.478 555.126C313.55 555.143 313.624 555.164 313.697 555.182ZM318.618 556.437C318.302 556.366 317.984 556.288 317.668 556.215C317.686 556.213 317.704 556.21 317.722 556.208C318.021 556.284 318.319 556.362 318.618 556.437ZM378.563 563.556C379.119 561.453 379.672 559.35 380.228 557.247C387.691 559.171 395.416 561.493 402.918 564.665C394.731 564.599 386.599 564.214 378.563 563.556ZM376.945 563.421C366.343 562.504 355.913 561.116 345.744 559.376C345.667 557.635 345.608 555.889 345.567 554.138C356.778 553.893 368.769 554.462 378.677 556.861C378.099 559.048 377.524 561.235 376.945 563.421ZM344.13 559.096C337.767 557.981 331.509 556.73 325.38 555.369C330.808 554.844 337.217 554.371 343.971 554.177C344.008 555.821 344.059 557.461 344.13 559.096ZM311.645 554.696C311.129 554.549 310.623 554.417 310.106 554.269C310.053 554.254 309.993 554.238 309.94 554.222C310.503 554.366 311.068 554.513 311.63 554.654L311.645 554.696ZM355.362 564.73L355.365 564.997C353.85 564.72 352.31 564.407 350.78 564.109C352.314 564.333 353.836 564.525 355.362 564.73ZM440.6 562.556C442.076 560.392 443.519 558.227 444.925 556.07C445.516 556.864 446.114 557.642 446.689 558.476L447.665 559.888C448.007 560.381 448.36 560.892 448.718 561.412C446.013 561.834 443.307 562.219 440.6 562.556ZM438.496 562.803C428.524 563.962 418.551 564.558 408.646 564.662C413.498 555.295 418.015 545.684 422.322 535.975C430.309 540.647 437.581 546.565 443.915 554.692C442.163 557.388 440.359 560.098 438.496 562.803ZM406.853 564.646C398.246 560.674 389.261 557.922 380.636 555.7C383.557 544.66 386.467 533.616 389.381 522.574C400.689 526.089 411.321 529.764 420.936 535.158C416.51 545.138 411.863 555.022 406.853 564.646ZM379.087 555.312C369.95 553.109 358.053 552.396 345.545 552.67C345.359 541.993 345.819 531.156 346.643 520.429C362.39 518.773 377.131 518.997 387.848 522.122C384.928 533.186 382.013 544.251 379.087 555.312ZM343.946 552.711C336.261 552.93 328.387 553.507 320.812 554.329C318.381 553.763 315.97 553.181 313.584 552.584C313.224 552.491 312.871 552.398 312.514 552.306C309.844 544.329 307.604 536.191 305.685 528.224C318.262 524.814 331.94 522.084 345.026 520.609C344.212 531.286 343.762 542.074 343.946 552.711ZM310.667 551.825C308.492 551.25 306.367 550.672 304.298 550.093L296.846 548.022C291.247 546.47 285.456 544.863 279.544 543.177C276.847 542.391 274.108 541.58 271.332 540.743C279.774 536.444 291.319 532.199 304.142 528.641C305.989 536.304 308.129 544.13 310.667 551.825ZM309.12 555.818C308.88 555.852 308.645 555.889 308.405 555.925C308.172 555.762 307.941 555.612 307.71 555.46C308.18 555.579 308.651 555.7 309.12 555.818ZM312.413 556.914C312.491 557.132 312.574 557.348 312.653 557.565C312.113 557.414 311.577 557.262 311.02 557.11C311.477 557.043 311.95 556.98 312.413 556.914ZM355.4 566.558C355.405 566.854 355.42 567.154 355.426 567.451C352.304 566.875 349.199 566.276 346.118 565.651C346.096 565.354 346.073 565.057 346.052 564.759C349.192 565.398 352.312 566.004 355.4 566.558ZM357.917 567.905L357.518 566.931C363.557 567.98 369.488 568.857 375.32 569.579C375.226 569.932 375.134 570.284 375.04 570.637C369.291 569.834 363.575 568.918 357.917 567.905ZM356.829 565.248L356.691 564.91C362.338 565.646 367.946 566.27 373.498 566.74C374.329 566.836 375.161 566.934 375.995 567.025C375.899 567.389 375.803 567.752 375.707 568.115C369.539 567.342 363.25 566.393 356.829 565.248ZM450.468 561.137C449.96 560.395 449.458 559.669 448.977 558.975L448.003 557.569C447.304 556.551 446.579 555.593 445.855 554.635C450.083 548.094 453.997 541.673 457.597 535.759C459.429 532.748 461.192 529.851 462.891 527.11C463.65 528.434 464.399 529.772 465.118 531.153C468.061 536.801 473.198 546.672 474.814 555.865C466.742 558.056 458.615 559.803 450.468 561.137ZM421.59 533.679C411.883 528.257 401.173 524.562 389.79 521.026C393.403 507.332 397.025 493.64 400.634 479.946C414.908 484.412 426.806 490.157 436.804 497.514C431.883 509.507 426.89 521.655 421.59 533.679ZM388.257 520.575C377.287 517.372 362.511 517.063 346.778 518.66C347.852 505.327 349.456 492.199 351.041 479.803C369.229 476.582 386.049 475.96 398.224 479.222C398.522 479.302 398.812 479.39 399.106 479.475C395.496 493.177 391.871 506.874 388.257 520.575ZM345.162 518.836C331.89 520.287 318.037 523.048 305.284 526.536C302.606 515.192 300.556 504.273 298.816 494.77C315.095 488.378 332.769 483.164 349.395 480.09C347.815 492.458 346.224 505.544 345.162 518.836ZM303.741 526.957C290.54 530.654 278.649 535.107 269.958 539.645C264.791 532.521 259.842 525.162 255.096 517.669C256.729 516.465 258.468 515.249 260.338 514.023C270.512 507.349 283.359 500.93 297.3 495.363C299.035 504.835 301.077 515.684 303.741 526.957ZM268.063 539.748C259.49 537.122 250.603 534.233 241.593 531.016C244.021 527.135 248.13 522.966 253.811 518.629C258.369 525.821 263.116 532.89 268.063 539.748ZM242.954 535.469C242.821 535.34 242.687 535.212 242.555 535.083C242.91 535.216 243.253 535.353 243.608 535.485C243.406 535.482 243.204 535.486 243.002 535.486C242.986 535.48 242.97 535.474 242.954 535.469ZM278.996 545.722C281.652 546.45 284.278 547.163 286.863 547.861C289.641 548.675 292.406 549.472 295.154 550.251C293.395 549.798 291.603 549.339 289.787 548.873C289.113 548.701 288.42 548.523 287.737 548.347C284.79 547.486 281.886 546.607 278.996 545.722ZM304.6 555.423C302.853 554.979 301.055 554.529 299.214 554.076C300.808 553.915 302.621 554.404 304.6 555.423ZM306.107 557.867C307.268 558.173 308.439 558.479 309.614 558.783C310.399 559.415 311.199 560.096 312.012 560.826C309.085 560.07 305.902 559.299 302.46 558.485C303.643 558.276 304.861 558.07 306.107 557.867ZM313.09 559.678L313.466 559.775C313.512 559.895 313.554 560.016 313.599 560.136C313.428 559.981 313.26 559.83 313.09 559.678ZM321.603 560.042C319.273 559.418 316.91 558.759 314.547 558.09C314.423 557.753 314.298 557.416 314.176 557.077C314.264 557.098 314.35 557.116 314.437 557.136C324.669 559.97 334.669 562.4 344.425 564.424C344.445 564.722 344.47 565.019 344.491 565.317C338.72 564.129 333.029 562.87 327.451 561.557C325.509 561.062 323.567 560.569 321.603 560.042ZM377.307 568.312C377.406 567.939 377.504 567.566 377.602 567.193C386.529 568.129 395.548 568.732 404.588 568.92C404.325 569.411 404.066 569.905 403.8 570.394C395.253 570.115 386.413 569.41 377.307 568.312ZM476.815 555.317C476.66 555.361 476.505 555.401 476.351 555.444C474.661 546.022 469.505 536.115 466.534 530.412C465.67 528.753 464.779 527.137 463.859 525.558C464.12 525.141 464.384 524.714 464.642 524.306C470.646 514.766 476.528 505.082 482.322 495.345C483.12 497.096 483.897 498.864 484.636 500.664C487.853 508.505 493.34 521.892 494.553 534.806C488.841 541.766 482.929 548.662 476.815 555.317ZM463.291 523.454C463.171 523.644 463.046 523.846 462.926 524.038C456.397 513.228 448.477 504.312 438.758 496.965C441.382 490.572 443.995 484.209 446.633 477.924C449.664 470.705 452.668 463.438 455.647 456.151C465.857 466.446 474.693 479.13 481.511 493.586C475.543 503.629 469.482 513.619 463.291 523.454ZM445.161 477.305C442.573 483.47 440.009 489.71 437.436 495.979C427.351 488.625 415.375 482.874 401.043 478.397C401.982 474.833 402.925 471.27 403.865 467.706L409.727 445.458C411.049 440.442 412.369 435.425 413.69 430.409C428.435 434.605 442.352 443.105 454.422 454.922C451.362 462.413 448.276 469.885 445.161 477.305ZM408.183 445.052L402.32 467.299C401.385 470.847 400.446 474.394 399.511 477.942C387.185 474.389 369.948 474.907 351.249 478.177C351.418 476.856 351.587 475.542 351.755 474.239C352.483 468.595 353.189 463.106 353.824 457.821C354.805 449.64 355.909 441.482 357.092 433.34C376.028 427.86 395.169 425.562 412.149 429.989C410.826 435.01 409.506 440.031 408.183 445.052ZM352.237 457.632C351.604 462.913 350.897 468.397 350.172 474.036C349.983 475.504 349.792 476.986 349.601 478.477C332.816 481.542 314.971 486.762 298.526 493.187C298.479 492.933 298.431 492.667 298.384 492.415L298.314 492.028C296.379 481.445 294.806 471.043 293.582 460.824C311.215 451.44 333.114 440.519 355.407 433.844C354.262 441.755 353.19 449.682 352.237 457.632ZM296.741 492.317L296.813 492.705C296.877 493.054 296.944 493.421 297.009 493.775C282.838 499.405 269.782 505.916 259.462 512.685C257.604 513.903 255.87 515.115 254.238 516.318C249.334 508.517 244.654 500.579 240.18 492.622C252.863 482.736 269.022 474.038 280.183 468.034L283.334 466.336C286.091 464.844 289.016 463.264 292.064 461.635C293.281 471.685 294.84 481.916 296.741 492.317ZM252.955 517.281C246.952 521.86 242.619 526.301 240.077 530.473C238.892 530.046 237.707 529.613 236.519 529.174C231.508 524.215 226.576 519.219 221.713 514.229C224.244 507.153 230.767 500.146 238.908 493.624C243.379 501.568 248.055 509.492 252.955 517.281ZM249.715 537.693L249.894 537.758C249.819 537.734 249.744 537.71 249.669 537.687C249.684 537.689 249.7 537.69 249.715 537.693ZM269.559 545.22C270.095 545.517 270.629 545.826 271.165 546.136C269.166 545.502 267.189 544.858 265.214 544.21C265.283 544.166 265.362 544.12 265.432 544.075C266.815 544.464 268.192 544.846 269.559 545.22ZM277.316 548.041C276.653 547.609 275.99 547.185 275.327 546.772C279.454 547.867 283.471 548.904 287.334 549.896C290.53 550.83 293.742 551.756 297.005 552.662C297.188 552.712 297.367 552.76 297.549 552.81C297.127 552.955 296.72 553.137 296.334 553.37C294.968 553.036 293.589 552.7 292.19 552.361C291.842 552.277 291.486 552.19 291.136 552.104C286.468 550.785 281.861 549.431 277.316 548.041ZM296.455 555.265C298.423 555.804 300.401 556.345 302.418 556.885C301.11 557.11 299.833 557.339 298.585 557.575C297.984 557.433 297.388 557.293 296.773 557.15C296.241 557.025 295.693 556.897 295.153 556.77C295.551 556.168 295.984 555.668 296.455 555.265ZM316.913 562.151C316.612 562.065 316.295 561.979 315.987 561.894C315.773 561.346 315.55 560.804 315.341 560.253C319.195 561.225 323.119 562.182 327.095 563.118C333.044 564.636 338.893 566.016 344.633 567.246C344.668 567.691 344.701 568.136 344.739 568.579C337.855 567.241 331.163 565.804 324.713 564.319C322.134 563.624 319.535 562.902 316.913 562.151ZM346.375 568.888C346.337 568.461 346.296 568.034 346.26 567.604C349.368 568.259 352.439 568.863 355.485 569.431C355.496 569.807 355.505 570.18 355.518 570.555C352.437 570.023 349.39 569.465 346.375 568.888ZM357.08 570.076L357.405 570.873C357.306 570.856 357.207 570.839 357.108 570.823C357.1 570.574 357.088 570.325 357.08 570.076ZM358.784 570.023C364.143 570.978 369.406 571.799 374.569 572.488C374.494 572.79 374.42 573.093 374.347 573.415C369.256 572.749 364.22 572.002 359.26 571.185L358.784 570.023ZM376.16 572.703C383.265 573.616 390.178 574.268 396.908 574.673C398.356 574.789 399.804 574.899 401.253 574.996C401.07 575.322 400.891 575.652 400.707 575.978C392.364 575.461 384.082 574.658 375.939 573.626C376.012 573.308 376.085 572.999 376.16 572.703ZM406.567 575.303C411.827 575.565 417.08 575.686 422.31 575.66C422.715 575.966 423.116 576.28 423.517 576.597C417.319 576.656 411.12 576.523 404.947 576.218C405.487 575.89 406.026 575.593 406.567 575.303ZM405.591 570.443C405.859 569.947 406.123 569.447 406.389 568.949C408.234 568.977 410.08 568.993 411.926 568.984C412.831 569.476 413.728 569.987 414.618 570.513C411.642 570.538 408.638 570.522 405.591 570.443ZM495.986 533.054C494.47 520.42 489.242 507.681 486.113 500.056C485.226 497.893 484.292 495.767 483.319 493.673C490.292 481.927 497.131 470.109 503.856 458.345C508.946 469.393 512.843 480.585 515.043 491.274C515.993 495.883 516.73 500.914 517.01 506.115C510.35 514.919 503.34 524.026 495.986 533.054ZM482.492 491.94C475.552 477.497 466.613 464.825 456.3 454.543C462.233 440.004 468.063 425.396 473.795 410.925C485.046 424.349 495.308 440.271 503.024 456.587C496.299 468.354 489.462 480.184 482.492 491.94ZM455.068 453.331C442.908 441.556 428.918 433.072 414.098 428.861C418.761 411.159 423.422 393.458 428.082 375.756C442.211 379.902 458.157 392.626 472.619 409.556C466.868 424.077 461.02 438.737 455.068 453.331ZM426.544 375.323C421.884 393.03 417.221 410.736 412.557 428.442C395.467 423.985 376.293 426.199 357.337 431.604C359.733 415.32 362.514 399.12 365.558 383.008C386.273 374.591 407.207 370.304 426.544 375.323ZM355.652 432.106C333.208 438.732 311.179 449.664 293.393 459.114C292.039 447.452 291.15 436.035 290.727 424.879C294.629 422.49 298.655 419.977 302.796 417.394C321.516 405.712 342.512 392.614 363.797 383.724C360.779 399.764 358.026 415.891 355.652 432.106ZM291.874 459.922C288.618 461.66 285.505 463.344 282.574 464.93L279.429 466.625C268.265 472.629 252.179 481.29 239.403 491.24C234.355 482.212 229.579 473.168 225.051 464.274C238.205 453.939 254.558 445.127 267.766 438.011C272.006 435.726 276.011 433.569 279.371 431.643C282.533 429.829 285.814 427.865 289.169 425.822C289.615 436.939 290.51 448.307 291.874 459.922ZM219.915 514.677C219.162 517.086 218.823 519.508 219.034 521.932C219.045 522.06 219.072 522.184 219.086 522.311C215.98 521.007 212.88 519.658 209.791 518.261C208.331 517.101 206.877 515.95 205.425 514.802C203.79 511.898 202.598 508.812 201.988 505.504C201.391 502.259 201.421 499.095 201.93 496.003C207.817 502.154 213.81 508.407 219.915 514.677ZM203.575 515.378C201.107 514.202 198.652 512.992 196.212 511.749C194.28 509.736 192.501 507.631 190.913 505.413C192.543 506.696 194.177 507.98 195.803 509.26L202.15 514.253C202.622 514.625 203.101 515.005 203.575 515.378ZM263.406 543.5C263.364 543.528 263.324 543.556 263.283 543.585C262.454 543.311 261.629 543.034 260.805 542.757C261.676 543.01 262.539 543.254 263.406 543.5ZM278.253 550.573C279.485 551.402 280.718 552.258 281.95 553.14C281.213 552.924 280.472 552.701 279.732 552.48C279.22 551.841 278.706 551.204 278.199 550.559C278.217 550.564 278.234 550.568 278.253 550.573ZM294.315 558.299C294.398 558.321 294.483 558.344 294.566 558.367C294.461 558.389 294.354 558.41 294.251 558.432C294.271 558.385 294.294 558.345 294.315 558.299ZM320.689 567.339C319.759 566.311 318.835 565.317 317.918 564.363C320.034 564.871 322.177 565.378 324.352 565.878C331.386 567.773 338.251 569.454 344.966 570.946C345.016 571.462 345.059 571.981 345.114 572.496C338.313 571.272 331.377 569.883 324.311 568.34C323.096 568.008 321.882 567.676 320.689 567.339ZM346.756 572.784C346.702 572.297 346.655 571.807 346.606 571.318C349.639 571.979 352.628 572.586 355.595 573.165C355.611 573.542 355.63 573.91 355.647 574.287C352.711 573.821 349.741 573.312 346.756 572.784ZM424.887 575.637C425.286 575.631 425.686 575.627 426.085 575.619C426.498 575.903 426.909 576.214 427.319 576.537C426.894 576.547 426.468 576.565 426.043 576.573C425.661 576.254 425.274 575.947 424.887 575.637ZM425.304 573.221C424.226 572.612 423.132 572.142 422.026 571.769C423.281 571.719 424.545 571.681 425.787 571.611C428.07 571.485 430.315 571.304 432.554 571.113C432.131 571.682 431.7 572.244 431.272 572.809C429.304 572.974 427.313 573.11 425.304 573.221ZM417.626 570.471C416.798 569.949 415.965 569.439 415.124 568.947C421.735 568.842 428.339 568.499 434.912 567.889C434.497 568.463 434.08 569.035 433.662 569.607C428.444 570.079 423.092 570.358 417.626 570.471ZM527.811 523.91C527.601 524.102 527.387 524.306 527.178 524.498C524.754 526.707 522.262 528.994 519.704 531.342C517.443 533.417 515.136 535.534 512.789 537.678C517.232 528.974 519.202 518.54 518.632 506.62C521.402 502.955 524.112 499.345 526.76 495.816C529.463 492.215 532.11 488.689 534.709 485.255C535.746 498.842 534.209 512.108 527.811 523.91ZM525.483 494.856C523.193 497.907 520.854 501.023 518.472 504.179C518.153 499.94 517.552 495.538 516.608 490.95C514.319 479.828 510.194 468.167 504.811 456.679C509 449.344 513.15 442.034 517.263 434.787C518.548 432.523 519.853 430.227 521.148 427.946C521.886 430.294 522.614 432.642 523.326 434.983C527.879 449.986 532.918 466.608 534.504 482.878C531.566 486.751 528.557 490.761 525.483 494.856ZM515.874 433.997C511.942 440.925 507.976 447.91 503.975 454.918C496.126 438.59 485.765 422.696 474.437 409.302C476.927 403.014 479.401 396.748 481.854 390.534C485.644 380.932 489.467 371.248 493.332 361.525C504.641 380.348 513.258 403.097 520.494 425.864C518.951 428.58 517.401 431.306 515.874 433.997ZM480.369 389.946C478.017 395.904 475.644 401.911 473.26 407.938C458.704 391.046 442.694 378.367 428.49 374.208C433.332 355.815 438.228 337.216 443.152 318.523C443.207 318.538 443.261 318.551 443.315 318.565C464.028 324.115 479.778 339.573 492.287 359.83C488.272 369.926 484.303 379.98 480.369 389.946ZM426.952 373.776C407.512 368.729 386.59 372.869 365.911 381.142C369.008 364.867 372.374 348.686 375.912 332.608C398.669 320.636 421.481 313.421 441.597 318.155C436.678 336.826 431.788 355.404 426.952 373.776ZM364.151 381.847C342.42 390.79 321.014 404.141 301.951 416.036C298.076 418.454 294.312 420.8 290.647 423.05C290.259 411.471 290.394 400.189 291.015 389.194C298.823 383.967 307.154 377.989 315.8 371.78C333.831 358.83 353.892 344.432 374.057 333.597C370.55 349.581 367.219 365.667 364.151 381.847ZM289.09 424.001C285.478 426.206 281.963 428.313 278.577 430.254C275.236 432.169 271.24 434.323 267.01 436.602C253.819 443.709 237.54 452.488 224.318 462.833C219.607 453.541 215.17 444.429 210.986 435.685C225.59 424.792 243.43 415.596 258.829 407.665C266.157 403.89 273.08 400.325 278.533 397.112C281.992 395.073 285.618 392.765 289.356 390.291C288.776 401.242 288.678 412.478 289.09 424.001ZM183.603 476.96C189.159 482.665 194.703 488.454 200.546 494.559C199.799 498.191 199.708 501.936 200.418 505.795C200.845 508.114 201.532 510.331 202.448 512.453L196.791 508.002C193.965 505.778 191.133 503.549 188.294 501.319C186.062 497.473 184.326 493.349 183.233 488.882C182.112 484.294 181.87 479.893 182.355 475.663C182.771 476.091 183.188 476.533 183.603 476.96ZM181.681 489.263C182.507 492.644 183.688 495.83 185.154 498.853C180.497 495.196 175.823 491.537 171.126 487.879C168.212 483.026 165.923 477.799 164.432 472.132C162.881 466.236 162.474 460.654 163.021 455.357C168.981 461.714 174.968 468.02 180.939 474.193C180.229 478.987 180.394 483.999 181.681 489.263ZM187.042 502.368C188.546 504.927 190.27 507.356 192.196 509.663C191.13 509.099 190.066 508.53 189.007 507.952C183.133 503.183 177.97 497.896 173.799 491.996C178.229 495.454 182.646 498.913 187.042 502.368ZM231.161 530.696C232.029 531.181 232.897 531.666 233.762 532.165C229.857 530.686 225.998 529.107 222.202 527.44C222.148 527.326 222.106 527.21 222.054 527.095C225.069 528.339 228.103 529.546 231.161 530.696ZM240.602 537.174C241.593 537.55 242.582 537.928 243.58 538.301C243.841 538.551 244.099 538.804 244.36 539.055C242.688 538.474 241.028 537.877 239.378 537.262C239.785 537.221 240.194 537.201 240.602 537.174ZM250.81 540.933C252.945 541.696 255.087 542.456 257.251 543.2C255.363 542.637 253.479 542.058 251.6 541.461C251.336 541.284 251.073 541.109 250.81 540.933ZM268.675 548.094C271.027 548.724 273.36 549.329 275.679 549.922C276.133 550.506 276.585 551.093 277.043 551.674C271.978 550.136 266.84 548.5 261.652 546.769C261.834 546.62 262.043 546.469 262.235 546.32C264.387 546.929 266.536 547.521 268.675 548.094ZM292.201 557.719C292.383 557.77 292.566 557.821 292.747 557.87C292.617 558.172 292.499 558.507 292.379 558.834C292.295 558.852 292.213 558.871 292.128 558.889C291.422 558.321 290.714 557.758 290.005 557.201C290.749 557.378 291.469 557.547 292.201 557.719ZM293.75 560.197C295.123 559.899 296.556 559.602 298.057 559.309C303.417 560.743 309.068 562.204 314.964 563.648C315.288 564.462 315.613 565.274 315.948 566.08C312.27 565.149 308.029 564.151 303.341 563.051C300.585 562.405 297.703 561.728 294.747 561.021C294.414 560.746 294.083 560.469 293.75 560.197ZM333.858 577.259C332.139 577.19 330.501 577.137 328.928 577.092C328.557 576.627 328.186 576.163 327.813 575.704C329.843 576.24 331.858 576.758 333.858 577.259ZM347.062 585.914C347.33 587.343 347.617 588.762 347.923 590.172C343.966 589.194 340.249 588.233 336.844 587.339C335.613 585.701 334.363 584.055 333.101 582.415C337.697 583.623 342.36 584.798 347.062 585.914ZM348.329 591.921C348.546 592.856 348.762 593.79 348.996 594.715C346.45 594.218 343.881 593.749 341.285 593.31C340.334 592.022 339.365 590.714 338.382 589.395C341.483 590.203 344.817 591.058 348.329 591.921ZM358.107 600.021C361.283 600.776 364.5 601.509 367.724 602.197C367.347 603.108 366.942 603.976 366.512 604.806C363.651 604.321 360.822 603.808 358.033 603.263C358.069 602.182 358.095 601.102 358.107 600.021ZM358.118 598.379C358.117 598.355 358.119 598.33 358.118 598.304C360.328 598.812 362.498 599.34 364.634 599.888C362.449 599.401 360.275 598.895 358.118 598.379ZM356.522 597.997C355.639 597.784 354.759 597.568 353.884 597.353C354.772 597.543 355.645 597.741 356.523 597.937C356.523 597.957 356.522 597.978 356.522 597.997ZM350.743 595.067C350.51 594.164 350.284 593.256 350.068 592.345C352.149 592.85 354.288 593.354 356.475 593.852C356.493 594.664 356.506 595.476 356.513 596.288C354.611 595.864 352.687 595.459 350.743 595.067ZM349.664 590.602C349.348 589.185 349.051 587.757 348.775 586.32C351.27 586.904 353.776 587.468 356.289 588.011C356.347 589.405 356.396 590.803 356.435 592.203C354.121 591.673 351.858 591.137 349.664 590.602ZM348.455 584.618C348.208 583.254 347.977 581.882 347.765 580.501C350.548 581.101 353.301 581.664 356.022 582.189C356.091 583.581 356.156 584.977 356.219 586.378C353.621 585.814 351.032 585.226 348.455 584.618ZM355.202 580.395C355.45 580.421 355.692 580.451 355.938 580.478L355.941 580.538C355.695 580.49 355.45 580.443 355.202 580.395ZM347.413 578.048C347.298 577.222 347.188 576.395 347.085 575.565C349.958 576.184 352.858 576.779 355.79 577.342C355.814 577.844 355.837 578.348 355.861 578.848C353.063 578.534 350.228 578.269 347.413 578.048ZM357.256 574.533C357.241 574.18 357.228 573.826 357.214 573.472C357.668 573.559 358.123 573.646 358.575 573.731L359.014 574.801C358.429 574.712 357.843 574.624 357.256 574.533ZM428.645 575.548C428.821 575.543 428.996 575.539 429.171 575.534C429.102 575.623 429.031 575.711 428.962 575.8C428.857 575.712 428.75 575.634 428.645 575.548ZM444.865 572.807C444.786 572.849 444.708 572.892 444.628 572.934C444.053 572.992 443.475 573.038 442.899 573.09C443.555 572.997 444.215 572.908 444.865 572.807ZM435.798 569.392C436.211 568.822 436.625 568.254 437.032 567.681C441.905 567.186 446.759 566.548 451.578 565.741C451.844 566.167 452.104 566.595 452.361 567.026C446.988 568.027 441.47 568.821 435.798 569.392ZM438.636 565.893C442.657 565.417 446.638 564.84 450.595 564.202C450.607 564.22 450.618 564.239 450.63 564.257C446.652 564.91 442.651 565.453 438.636 565.893ZM452.309 563.906C454.095 563.607 455.884 563.315 457.657 562.983C455.894 563.334 454.128 563.671 452.354 563.976C452.339 563.953 452.324 563.93 452.309 563.906ZM475.294 560.315C475.295 560.332 475.297 560.35 475.298 560.368C474.854 560.482 474.409 560.594 473.965 560.715C473.972 560.708 473.979 560.701 473.986 560.693C474.422 560.568 474.858 560.443 475.294 560.315ZM476.858 559.975C476.855 559.931 476.852 559.888 476.85 559.844C481.826 558.33 486.741 556.607 491.581 554.659C491.57 554.681 491.557 554.701 491.546 554.723C488.181 556.287 484.73 557.73 481.202 559.063C479.751 559.33 478.303 559.63 476.858 559.975ZM487.89 557.936C487.719 558.02 487.547 558.105 487.375 558.189C487.35 558.191 487.325 558.193 487.299 558.196C487.498 558.113 487.691 558.02 487.89 557.936ZM528.934 525.048C534.07 520.349 539.283 515.38 544.605 510.215C541.496 515.649 537.573 520.893 532.635 525.878C528.661 529.891 524.474 533.611 520.109 537.084C523.729 533.304 526.632 529.271 528.934 525.048ZM548.506 464.961C544.456 469.913 540.208 475.385 535.8 481.176C534.067 464.897 529.125 448.586 524.855 434.517C524 431.7 523.122 428.873 522.226 426.048C528.013 415.862 533.889 405.562 539.833 395.297C540.154 396.444 540.47 397.584 540.783 398.705L542.326 404.235C547.2 421.675 552.339 440.105 554.001 458.181C552.118 460.518 550.282 462.789 548.506 464.961ZM521.567 423.974C514.259 401.16 505.531 378.446 494.069 359.678C499.849 345.15 505.724 330.54 511.737 315.975C524.143 340.578 532.55 369.277 539.231 393.143C533.267 403.426 527.374 413.756 521.567 423.974ZM493.023 357.989C480.419 337.908 464.557 322.601 443.73 317.02C443.674 317.005 443.617 316.991 443.559 316.976C448.311 298.941 453.087 280.826 457.875 262.695C481.202 269.303 498.06 289.498 510.785 314.108C504.738 328.731 498.831 343.398 493.023 357.989ZM442.004 316.607C421.783 311.832 399.034 318.819 376.361 330.578C379.406 316.806 382.565 303.11 385.782 289.496C407.47 273.017 432.731 256.457 456.33 262.29C451.538 280.434 446.758 298.561 442.004 316.607ZM374.513 331.537C353.846 342.49 333.304 357.24 314.868 370.481C306.601 376.418 298.622 382.147 291.123 387.199C291.785 376.525 292.936 366.143 294.556 356.057C320.629 339.502 345.363 320.743 372.183 300.01C373.615 298.903 375.071 297.77 376.553 296.618C378.906 294.787 381.32 292.911 383.779 291.026C380.614 304.451 377.507 317.957 374.513 331.537ZM289.464 388.304C285.393 391.016 281.46 393.531 277.724 395.733C272.309 398.923 265.407 402.478 258.099 406.242C242.721 414.162 224.945 423.33 210.282 434.215C207.616 428.633 205.053 423.208 202.589 417.991L202.269 417.314C200.872 414.357 199.397 411.288 197.895 408.168C214.473 396.729 234.36 387.344 251.623 379.201C262.754 373.95 273.267 368.991 281.149 364.316C285.052 362.002 288.914 359.638 292.746 357.227C291.178 367.295 290.089 377.661 289.464 388.304ZM200.826 418L201.144 418.676C203.649 423.981 206.258 429.503 208.972 435.183C195.027 445.771 184.142 457.974 181.26 472.219C175.267 466.012 169.263 459.679 163.285 453.297C165.97 435.641 179.351 421.219 196.565 409.092C198.028 412.128 199.463 415.117 200.826 418ZM169.911 488.96C172.836 493.788 176.38 498.235 180.425 502.341C171.684 495.731 163.97 488.212 157.767 479.57C161.83 482.693 165.88 485.823 169.911 488.96ZM219.992 526.247C220.018 526.32 220.04 526.394 220.067 526.467C219.896 526.33 219.727 526.195 219.556 526.057C219.703 526.12 219.846 526.186 219.992 526.247ZM247.137 541.7C247.144 541.706 247.15 541.712 247.156 541.718C246.976 541.652 246.797 541.589 246.618 541.523C246.791 541.581 246.964 541.642 247.137 541.7ZM250.684 542.856C250.762 542.881 250.839 542.906 250.918 542.931C251.068 543.032 251.218 543.132 251.368 543.232C251.217 543.179 251.066 543.125 250.915 543.072C250.838 543 250.76 542.928 250.684 542.856ZM256.1 544.529C257.513 544.954 258.927 545.37 260.341 545.777C260.178 545.914 260.045 546.047 259.891 546.183C258.965 545.871 258.036 545.55 257.107 545.231C256.771 544.998 256.436 544.762 256.1 544.529ZM286.216 556.294C287.525 557.29 288.835 558.301 290.143 559.341C289.752 559.433 289.367 559.524 288.988 559.616C287.514 559.21 286.043 558.798 284.578 558.382C283.708 557.349 282.843 556.309 281.984 555.26C283.41 555.612 284.819 555.958 286.216 556.294ZM320.065 569.047C321.164 570.28 322.269 571.557 323.376 572.868C322.441 572.619 321.425 572.352 320.334 572.067C319.823 570.977 319.316 569.885 318.828 568.777C319.243 568.871 319.65 568.955 320.065 569.047ZM324.257 574.76C324.558 574.841 324.853 574.916 325.153 574.998C325.709 575.672 326.264 576.351 326.818 577.037C325.367 577.002 323.987 576.976 322.731 576.958C322.221 575.97 321.73 574.963 321.241 573.956C322.33 574.243 323.354 574.514 324.257 574.76ZM328.479 581.185C328.807 581.274 329.133 581.361 329.461 581.449C329.821 581.546 330.183 581.64 330.544 581.737C331.827 583.383 333.095 585.037 334.339 586.681C333.996 586.591 333.641 586.497 333.306 586.409C331.491 585.933 329.384 585.353 327.089 584.704C326.165 583.197 325.278 581.65 324.412 580.08C325.8 580.46 327.166 580.832 328.479 581.185ZM349.869 597.998C350.229 599.279 350.611 600.548 351.009 601.81C349.607 601.502 348.226 601.187 346.853 600.865C345.945 599.638 345.008 598.364 344.046 597.058C343.883 596.836 343.715 596.608 343.55 596.383C345.614 596.916 347.724 597.457 349.869 597.998ZM351.586 603.568C351.772 604.125 351.962 604.681 352.156 605.234C351.309 605.018 350.471 604.808 349.639 604.603C349.214 604.038 348.779 603.458 348.333 602.859C349.404 603.102 350.498 603.333 351.586 603.568ZM352.802 607.046C352.837 607.14 352.875 607.233 352.91 607.327C352.41 607.199 351.911 607.064 351.413 606.929C351.338 606.832 351.265 606.737 351.189 606.639C351.726 606.774 352.26 606.907 352.802 607.046ZM353.61 609.153C353.742 609.49 353.865 609.834 354.001 610.169C353.699 609.809 353.382 609.42 353.053 609.012C353.239 609.058 353.424 609.107 353.61 609.153ZM348.833 606.19C348.339 606.042 347.84 605.901 347.349 605.746C347.078 605.66 346.808 605.574 346.539 605.489C347.249 605.66 347.978 605.841 348.705 606.019C348.746 606.074 348.791 606.135 348.833 606.19ZM355.494 609.603C355.684 609.647 355.875 609.69 356.066 609.734C356.038 610.057 355.993 610.379 355.962 610.703C355.808 610.335 355.644 609.974 355.494 609.603ZM354.8 607.794L354.704 607.543C355.201 607.674 355.694 607.801 356.194 607.934C356.189 607.997 356.185 608.06 356.18 608.124C355.72 608.018 355.261 607.905 354.8 607.794ZM357.765 608.362C358.391 608.532 359.016 608.7 359.643 608.874C359.017 608.747 358.386 608.607 357.757 608.471C357.76 608.434 357.763 608.398 357.765 608.362ZM357.875 606.734C357.912 606.117 357.95 605.5 357.977 604.884C360.519 605.378 363.091 605.846 365.693 606.292C365.213 607.089 364.693 607.818 364.145 608.499C362.061 607.888 359.964 607.299 357.875 606.734ZM367.373 606.571C367.83 606.647 368.285 606.724 368.744 606.799C367.798 607.533 366.854 608.219 365.914 608.849C366.434 608.14 366.915 607.374 367.373 606.571ZM368.181 605.089C368.586 604.271 368.964 603.416 369.321 602.535C370.533 602.788 371.746 603.032 372.957 603.27C372.106 604.033 371.259 604.761 370.413 605.461C369.664 605.342 368.926 605.212 368.181 605.089ZM358.046 592.569C358.008 591.16 357.96 589.755 357.904 588.352C362.275 589.277 366.666 590.129 371.06 590.888C370.756 592.295 370.422 593.692 370.059 595.071C365.954 594.29 361.93 593.443 358.046 592.569ZM357.833 586.721C357.771 585.31 357.707 583.903 357.637 582.501C362.603 583.438 367.468 584.251 372.226 584.94C371.964 586.389 371.686 587.861 371.384 589.346C366.858 588.565 362.336 587.68 357.833 586.721ZM357.556 580.852L357.547 580.664C363.087 581.33 368.214 582.178 372.527 583.254C372.521 583.289 372.515 583.323 372.508 583.358C367.636 582.653 362.652 581.818 357.556 580.852ZM372.908 581.056C372.874 581.259 372.836 581.47 372.801 581.675C368.254 580.549 362.969 579.688 357.468 579.029C357.444 578.569 357.423 578.106 357.401 577.643C362.551 578.608 367.778 579.472 373.055 580.215C373.005 580.498 372.958 580.766 372.908 581.056ZM363.224 577.061C366.643 577.548 370.021 577.983 373.373 578.385C373.358 578.467 373.343 578.555 373.328 578.638C369.938 578.162 366.568 577.635 363.224 577.061ZM360.724 575.062L360.83 575.019L360.448 574.086C364.966 574.908 369.402 575.626 373.763 576.25C373.729 576.43 373.695 576.627 373.661 576.81C369.407 576.302 365.087 575.709 360.724 575.062ZM375.345 576.479C383.354 577.586 391.084 578.345 398.554 578.782C398.454 578.861 398.353 578.936 398.253 579.015C390.759 578.578 383.105 577.925 375.248 577.013C375.28 576.838 375.313 576.65 375.345 576.479ZM430.492 576.448C430.751 576.118 431.014 575.794 431.27 575.461C434.546 575.329 437.807 575.131 441.05 574.862C440.418 575.209 439.786 575.554 439.154 575.905C438.633 575.977 438.112 576.048 437.588 576.116C435.226 576.26 432.86 576.367 430.492 576.448ZM445.097 574.497C447.229 574.281 449.35 574.02 451.465 573.739C448.956 574.291 446.386 574.768 443.78 575.202C444.218 574.966 444.657 574.73 445.097 574.497ZM454.378 571.727C452.612 571.99 450.838 572.226 449.058 572.443C449.418 572.26 449.779 572.081 450.139 571.901C451.604 571.628 453.055 571.335 454.494 571.027C454.592 571.239 454.694 571.449 454.786 571.66C454.65 571.681 454.514 571.707 454.378 571.727ZM454.035 566.722C453.786 566.292 453.532 565.865 453.274 565.442C459.228 564.396 465.133 563.11 470.962 561.541C470.939 561.564 470.917 561.588 470.895 561.61C467.51 562.655 464.141 563.89 460.787 565.268C458.564 565.792 456.312 566.275 454.035 566.722ZM480.677 560.795C481.258 560.682 481.84 560.582 482.422 560.482C480.59 561.284 478.732 562.052 476.843 562.781C476.857 562.563 476.855 562.341 476.863 562.121C478.141 561.688 479.42 561.257 480.677 560.795ZM529.137 531.452C530.707 530.003 532.257 528.529 533.768 527.004C540.168 520.542 544.933 513.678 548.395 506.526C551.572 503.421 554.78 500.273 558.062 497.044C560.354 494.789 562.666 492.514 564.992 490.234C561.211 497.926 556.095 505.482 549.319 512.891C542.953 519.851 536.201 526.007 529.137 531.452ZM557.172 454.241C556.592 454.961 556.022 455.671 555.451 456.38C553.616 438.723 548.614 420.797 543.864 403.803L542.322 398.274C541.871 396.654 541.414 395.015 540.951 393.361C543.553 388.878 546.164 384.408 548.785 379.967C551.352 375.617 553.917 371.066 556.631 366.246C556.855 365.848 557.083 365.444 557.309 365.045C558.008 367.721 558.701 370.348 559.389 372.898L561.224 379.663C566.327 398.407 571.303 416.739 573.22 434.557C567.516 441.375 562.154 448.042 557.172 454.241ZM555.24 365.46C552.529 370.273 549.969 374.818 547.41 379.154C545.049 383.154 542.698 387.184 540.352 391.221C533.35 366.246 524.948 337.855 512.657 313.769C518.056 300.727 523.57 287.735 529.218 274.873C540.661 300.526 548.246 329.938 554.717 355.042C555.398 357.682 556.067 360.27 556.729 362.82C556.232 363.701 555.731 364.587 555.24 365.46ZM511.698 311.915C498.922 287.516 482.005 267.842 458.284 261.148C462.463 245.325 466.647 229.51 470.827 213.742C497.441 221.035 515.334 244.5 528.33 272.912C522.654 285.806 517.121 298.836 511.698 311.915ZM456.739 260.743C433.012 254.861 407.987 270.756 386.358 287.059C389.495 273.812 392.675 260.642 395.843 247.558C417.35 227.431 442.786 206.975 469.277 213.354C465.098 229.117 460.916 244.928 456.739 260.743ZM384.359 288.572C381.357 290.858 378.423 293.139 375.573 295.356C374.094 296.506 372.637 297.638 371.207 298.745C344.836 319.13 320.482 337.595 294.906 353.926C295.561 350.032 296.26 346.165 297.059 342.361C298.091 337.448 299.328 332.013 300.885 326.314C334.408 304.712 362.603 279.265 384.038 258.795L387.07 255.894C389.237 253.818 391.453 251.696 393.714 249.558C390.587 262.484 387.452 275.49 384.359 288.572ZM295.496 342.033C294.595 346.324 293.814 350.691 293.096 355.097C288.88 357.766 284.637 360.39 280.335 362.941C272.518 367.575 262.04 372.52 250.943 377.754C233.683 385.896 213.829 395.262 197.187 406.699C196.928 406.161 196.677 405.639 196.416 405.098C192.879 397.764 189.162 390.053 185.535 382.103C203.822 371.155 225.503 362.158 245.333 353.933C261.336 347.295 276.451 341.026 287.267 334.699C291.212 332.391 295.072 330.004 298.883 327.581C297.528 332.701 296.43 337.576 295.496 342.033ZM286.461 333.319C275.74 339.591 260.674 345.839 244.723 352.455C224.885 360.683 203.216 369.674 184.861 380.624C181.986 374.28 179.183 367.786 176.579 361.209C190.518 355.145 204.713 349.676 218.595 344.345C244.696 334.324 271.685 323.961 296.583 309.67C300.152 307.621 303.673 305.476 307.169 303.263C303.942 310.715 301.467 318.205 299.507 325.295C295.239 328.036 290.898 330.723 286.461 333.319ZM141.73 432.489C140.797 439.688 141.472 447.459 144.115 455.888C146.007 461.921 148.526 467.524 151.528 472.775C147.371 469.611 143.188 466.466 138.991 463.335C134.079 455.899 129.987 447.806 126.932 438.946C123.365 428.599 121.748 419.605 122.225 411.624C128.781 418.565 135.275 425.538 141.73 432.489ZM153.748 476.489C158.1 483.302 163.357 489.445 169.285 495.033C158.791 487.061 149.456 477.949 141.83 467.445C145.822 470.444 149.79 473.463 153.748 476.489ZM237.31 535.929C236.975 535.983 236.638 536.028 236.304 536.092C233.294 534.92 230.341 533.686 227.456 532.387C227.128 532.125 226.801 531.863 226.474 531.601C230.042 533.072 233.653 534.515 237.31 535.929ZM264.821 550.721C267.104 551.378 269.386 552.012 271.654 552.62C274.262 553.318 276.84 553.978 279.397 554.619C280.211 555.626 281.03 556.625 281.854 557.619C277.509 556.361 273.194 555.067 268.924 553.721C267.559 552.715 266.192 551.715 264.821 550.721ZM316.913 568.346C317.378 569.422 317.856 570.487 318.342 571.547C317.718 571.384 317.085 571.22 316.422 571.049C312.42 570.011 307.496 568.733 302.105 567.27C300.707 566.05 299.303 564.845 297.897 563.654C304.33 565.328 310.687 566.912 316.913 568.346ZM305.845 569.919C309.199 570.817 312.6 571.711 316.02 572.598C317.144 572.889 318.194 573.161 319.207 573.425C319.769 574.609 320.352 575.777 320.942 576.937C320.298 576.93 319.657 576.924 319.017 576.92C315.943 576.055 312.946 575.196 310.049 574.345C308.307 572.767 306.557 571.195 304.796 569.636C305.146 569.73 305.494 569.825 305.845 569.919ZM313.134 576.922C313.051 576.922 312.968 576.923 312.884 576.924C312.845 576.888 312.805 576.852 312.766 576.816C312.889 576.852 313.012 576.887 313.134 576.922ZM326.03 586.015C327.031 587.628 328.076 589.19 329.148 590.723C328.539 590.535 327.923 590.344 327.297 590.147C325.307 588.337 323.292 586.488 321.26 584.617C322.996 585.131 324.589 585.597 326.03 586.015ZM333.474 593.697C334.61 594.026 335.689 594.33 336.685 594.597C336.953 594.669 337.217 594.738 337.474 594.805L338.27 595.012C339.198 595.254 340.143 595.499 341.096 595.747C341.659 596.512 342.217 597.27 342.76 598.007C343.341 598.797 343.891 599.543 344.442 600.291C343.82 600.14 343.175 599.997 342.559 599.842C340.768 599.393 339.038 598.952 337.369 598.52C335.96 596.98 334.618 595.351 333.311 593.676C333.365 593.683 333.419 593.69 333.474 593.697ZM339.47 600.706C340.371 600.935 341.257 601.166 342.169 601.394C343.393 601.702 344.665 601.989 345.916 602.284C346.344 602.863 346.782 603.456 347.189 604.003C345.31 603.548 343.494 603.122 341.756 602.723C341.207 602.278 340.652 601.818 340.096 601.357C339.882 601.147 339.682 600.919 339.47 600.706ZM359.374 612.234C358.982 612.156 358.597 612.085 358.2 612C357.95 611.923 357.702 611.849 357.453 611.773C357.514 611.211 357.584 610.65 357.635 610.087C359.015 610.384 360.386 610.652 361.744 610.907C361.032 611.45 360.256 611.867 359.442 612.213C359.42 612.221 359.397 612.226 359.374 612.234ZM364.772 611.448C365.186 611.519 365.603 611.591 366.012 611.658C365.207 611.824 364.402 611.979 363.596 612.12C363.989 611.91 364.38 611.678 364.772 611.448ZM372.524 605.775C373.319 605.092 374.117 604.378 374.915 603.647C377.062 604.052 379.198 604.426 381.317 604.767C380.641 605.455 379.948 606.111 379.238 606.737C376.988 606.437 374.751 606.115 372.524 605.775ZM370.346 599.731C370.654 598.811 370.941 597.871 371.212 596.916C373.573 597.354 375.957 597.769 378.357 598.153C377.348 599.151 376.345 600.122 375.345 601.066C373.726 600.639 372.055 600.192 370.346 599.731ZM371.634 595.37C371.999 593.979 372.328 592.571 372.634 591.157C376.319 591.774 380.003 592.323 383.677 592.788C383.671 592.795 383.664 592.802 383.657 592.808C382.348 594.141 381.049 595.46 379.759 596.754C377.031 596.33 374.318 595.867 371.634 595.37ZM372.963 589.609C373.268 588.109 373.546 586.622 373.809 585.16C378.071 585.755 382.249 586.25 386.341 586.644C387.244 586.881 388.147 587.124 389.05 587.378C387.721 588.691 386.398 590.024 385.079 591.363C381.05 590.875 377.007 590.285 372.963 589.609ZM386.612 585.061C383.766 584.314 380.936 583.635 378.191 582.98C376.887 582.668 375.623 582.359 374.357 582.05C374.398 581.812 374.443 581.564 374.483 581.327C374.536 581.019 374.586 580.736 374.638 580.434C381.132 581.315 387.689 581.998 394.253 582.439C393.176 583.412 392.103 584.418 391.033 585.447C389.571 585.331 388.098 585.203 386.612 585.061ZM374.911 578.859C374.928 578.769 374.945 578.679 374.96 578.588C382.275 579.438 389.431 580.086 396.433 580.527C396.266 580.67 396.098 580.804 395.932 580.949C388.902 580.517 381.872 579.803 374.911 578.859ZM399.828 580.694C406.637 581.061 413.302 581.235 419.825 581.212C413.132 581.51 406.357 581.464 399.566 581.145C399.654 580.996 399.74 580.844 399.828 580.694ZM429.271 579.442C429.051 579.236 428.83 579.034 428.609 578.832C428.668 578.759 428.724 578.685 428.783 578.611C429.056 578.59 429.332 578.573 429.603 578.551C429.885 578.827 430.166 579.1 430.446 579.393C430.054 579.408 429.664 579.429 429.271 579.442ZM456.405 571.394C456.305 571.157 456.192 570.92 456.085 570.683C458.687 570.101 461.258 569.481 463.772 568.786C463.217 569.328 462.661 569.869 462.103 570.406C460.207 570.762 458.307 571.091 456.405 571.394ZM456.149 569.026C458.287 568.052 460.429 567.127 462.578 566.268C464.277 565.854 465.962 565.418 467.628 564.958C467.146 565.446 466.662 565.93 466.178 566.413C462.912 567.385 459.566 568.253 456.149 569.026ZM470.745 564.073C472.266 563.622 473.768 563.145 475.262 562.656C475.245 562.916 475.213 563.169 475.187 563.426C473.298 564.126 471.376 564.782 469.432 565.411C469.87 564.965 470.309 564.521 470.745 564.073ZM574.659 432.841C572.606 415.415 567.743 397.522 562.768 379.241L560.931 372.48C560.108 369.429 559.278 366.273 558.437 363.044C563.046 354.88 567.906 346.429 573.2 338.329C573.949 341.264 574.705 344.166 575.484 347.002C576.522 350.778 577.566 354.511 578.599 358.204C584.031 377.626 589.178 396.047 591.354 413.951C585.515 420.191 579.943 426.568 574.659 432.841ZM557.861 360.818C557.333 358.783 556.803 356.73 556.263 354.64C549.663 329.032 541.912 298.974 530.081 272.893C530.291 272.419 530.494 271.939 530.704 271.465C535.741 260.063 540.408 250.375 545.367 241.92C555.706 265.227 562.049 291.899 568.031 317.095C569.601 323.704 571.12 330.058 572.67 336.22C567.349 344.252 562.476 352.662 557.861 360.818ZM529.243 270.818C529.225 270.86 529.207 270.902 529.188 270.944C516.072 242.746 498.019 219.528 471.236 212.195C472.372 207.912 473.508 203.624 474.642 199.351C476.516 192.288 478.958 185.939 481.888 180.173C513.054 189.345 531.805 212.177 544.553 240.137C539.354 248.874 534.498 258.924 529.243 270.818ZM473.098 198.94C471.962 203.221 470.824 207.517 469.686 211.808C443.136 205.388 417.95 224.883 396.523 244.743C398.247 237.611 399.843 230.694 401.386 224.004C402.272 220.159 403.155 216.361 404.042 212.576C424.048 189.95 446.102 170.711 479.133 179.364C479.312 179.412 479.48 179.456 479.658 179.503C479.909 179.571 480.146 179.656 480.396 179.725C477.436 185.525 474.97 191.888 473.098 198.94ZM399.828 223.646C398.265 230.43 396.648 237.446 394.895 244.68C394.731 245.359 394.566 246.04 394.402 246.72C391.518 249.423 388.702 252.118 385.967 254.738L382.937 257.638C361.877 277.748 334.283 302.675 301.534 323.994C303.595 316.783 306.2 309.206 309.598 301.722C338.121 283.261 364.584 258.933 393.754 224.541L394.218 223.994C396.728 221.035 399.25 218.065 401.798 215.134C401.141 217.956 400.487 220.79 399.828 223.646ZM392.999 222.959L392.537 223.506C364.213 256.9 338.461 280.747 310.892 298.947C311.878 296.907 312.921 294.878 314.036 292.872C315.838 289.625 318.609 286.331 321.286 283.145C321.937 282.369 322.59 281.588 323.237 280.802C351.682 261.022 370.099 236.518 390.943 208.765C393.081 205.917 395.246 203.034 397.449 200.121C400.832 195.646 404.634 191.275 408.783 187.122C406.535 195.36 404.523 203.545 402.58 211.815C399.347 215.481 396.165 219.227 392.999 222.959ZM312.639 292.095C311.074 294.911 309.653 297.769 308.337 300.64C304.202 303.306 300.025 305.851 295.788 308.283C270.998 322.511 244.068 332.851 218.024 342.851C204.14 348.183 189.944 353.651 175.992 359.721C173.536 353.43 171.274 347.068 169.325 340.692C181.179 336.831 193.112 333.274 204.8 329.794C239.591 319.434 275.565 308.721 308.21 290.252C311.778 288.233 315.195 286.152 318.482 284.011C316.284 286.661 314.154 289.368 312.639 292.095ZM120.686 409.997C119.917 418.544 121.546 428.227 125.423 439.471C128.051 447.092 131.457 454.132 135.452 460.699C131.384 457.685 127.298 454.69 123.188 451.722C117.202 442.942 112.179 433.385 108.378 422.952C103.854 410.534 101.808 400.096 102.485 391.113C108.619 397.347 114.681 403.655 120.686 409.997ZM137.818 464.456C143.904 473.624 151.238 481.777 159.496 489.073C146.837 479.496 135.437 468.501 126.091 455.811C130.02 458.672 133.927 461.555 137.818 464.456ZM221.148 529.382C221.064 529.34 220.985 529.296 220.901 529.254C220.962 529.28 221.023 529.305 221.083 529.331C221.104 529.347 221.126 529.365 221.148 529.382ZM257.576 548.543C257.463 548.684 257.378 548.821 257.274 548.96C256.99 548.701 256.705 548.441 256.422 548.181C256.806 548.304 257.191 548.423 257.576 548.543ZM301.298 568.688C303.038 570.207 304.769 571.744 306.493 573.29C302.293 572.034 298.313 570.798 294.557 569.591C293.385 568.349 292.221 567.092 291.068 565.819C294.406 566.782 297.822 567.738 301.298 568.688ZM309.282 575.806C309.701 576.187 310.121 576.566 310.54 576.948C307.65 576.986 304.898 577.055 302.354 577.152C302.185 577.096 302.016 577.041 301.847 576.987C300.19 575.379 298.547 573.745 296.926 572.073C301.034 573.36 305.193 574.611 309.282 575.806ZM317.769 583.576C318 583.789 318.234 584.004 318.465 584.217C320.209 585.823 321.94 587.417 323.656 588.989C319.121 587.529 314.357 585.938 309.937 584.436C308.083 582.818 306.25 581.158 304.438 579.457C309.065 580.932 313.648 582.339 317.769 583.576ZM331.049 593.371C331.183 593.549 331.325 593.72 331.46 593.898C331.254 593.714 331.047 593.528 330.84 593.342C330.91 593.352 330.979 593.361 331.049 593.371ZM338.288 601.937C336.746 601.593 335.298 601.278 333.964 600.991C332.397 600.026 330.831 599.038 329.265 598.027C329.845 598.184 330.412 598.34 331.004 598.499C332.529 598.907 334.104 599.321 335.691 599.734C336.562 600.483 337.429 601.22 338.288 601.937ZM342.874 606.022C343.11 606.221 343.354 606.409 343.593 606.605C343.115 606.343 342.637 606.068 342.159 605.802C342.395 605.874 342.633 605.948 342.874 606.022ZM381.354 607.009C382.005 606.389 382.645 605.746 383.268 605.075C384.008 605.187 384.744 605.292 385.478 605.394C384.14 605.962 382.8 606.504 381.459 607.023C381.424 607.019 381.389 607.014 381.354 607.009ZM377.162 601.544C378.209 600.542 379.261 599.508 380.317 598.455C382.207 598.743 384.103 599.013 386.001 599.255C385.005 600.571 383.98 601.838 382.915 603.037C381.075 602.564 379.157 602.067 377.162 601.544ZM381.716 597.053C382.737 596.022 383.763 594.981 384.796 593.93C385.091 593.629 385.388 593.328 385.683 593.028C387.136 593.2 388.586 593.358 390.035 593.502C389.079 594.958 388.11 596.396 387.109 597.782C385.309 597.559 383.51 597.317 381.716 597.053ZM387.085 591.605C388.321 590.352 389.562 589.107 390.807 587.887C391.594 588.12 392.379 588.36 393.162 588.609C392.449 589.748 391.732 590.885 391.006 592.014C389.702 591.889 388.395 591.753 387.085 591.605ZM394.727 589.122C397.88 590.18 400.962 591.394 403.882 592.835C400.218 592.723 396.522 592.497 392.805 592.172C393.45 591.16 394.09 590.142 394.727 589.122ZM393.171 585.615C394.276 584.57 395.385 583.556 396.494 582.582C396.61 582.589 396.727 582.598 396.843 582.605C396.217 583.651 395.581 584.69 394.943 585.726C394.352 585.688 393.766 585.657 393.171 585.615ZM398.655 582.703C406.945 583.119 415.218 583.119 423.356 582.611C422.399 583.72 421.429 584.812 420.448 585.889C412.939 586.32 405.038 586.305 396.746 585.839C397.385 584.796 398.028 583.757 398.655 582.703ZM425.613 582.462C426.444 582.4 427.27 582.325 428.098 582.252C426.519 583.179 424.944 584.11 423.37 585.041C424.122 584.187 424.874 583.334 425.613 582.462ZM433.198 579.281C432.975 579.291 432.749 579.299 432.525 579.308C432.243 578.991 431.961 578.674 431.677 578.374C432.952 578.256 434.215 578.124 435.468 577.982C434.711 578.413 433.954 578.845 433.198 579.281ZM458.33 573.957C458.009 574.005 457.687 574.046 457.366 574.093C457.354 574.054 457.34 574.014 457.328 573.975C457.806 573.85 458.267 573.707 458.741 573.578C458.604 573.704 458.467 573.83 458.33 573.957ZM464.978 569.851C465.666 569.179 466.352 568.501 467.036 567.82C469.716 567.014 472.359 566.16 474.937 565.221C474.857 565.625 474.729 566.008 474.619 566.399C471.966 567.534 469.245 568.593 466.446 569.557C465.958 569.66 465.467 569.752 464.978 569.851ZM567.18 501.274C576.381 490.458 582.772 479.76 587.025 469.068C592.826 463.662 598.732 458.337 604.742 453.18C600.212 464.563 593.085 476.127 582.561 488.155C572.328 499.85 561.53 509.927 550.311 518.581C556.254 513.235 561.894 507.486 567.18 501.274ZM592.786 412.43C590.499 394.855 585.457 376.79 580.137 357.771C579.104 354.081 578.061 350.35 577.025 346.577C576.123 343.296 575.254 339.923 574.39 336.506C578.615 330.17 583.135 324.11 588.022 318.613C588.699 321.157 589.385 323.667 590.093 326.118C592.19 333.369 594.351 340.408 596.442 347.215C601.759 364.525 606.689 380.616 609.327 396.18C603.609 401.35 598.091 406.825 592.786 412.43ZM573.868 334.431C572.442 328.713 571.035 322.828 569.586 316.724C563.492 291.064 557.025 263.891 546.37 240.219C550.722 233.006 555.336 226.715 560.642 221.036C569.936 243.145 575.842 268.103 581.418 291.74C583.474 300.457 585.453 308.811 587.534 316.756C582.628 322.178 578.102 328.166 573.868 334.431ZM545.566 238.461C532.719 210.687 513.85 188.018 482.649 178.731C486.901 170.733 492.124 163.884 498.144 157.868C529.272 167.098 547.597 190.71 559.96 219.408C554.6 225.059 549.944 231.314 545.566 238.461ZM481.149 178.281C480.786 178.179 480.443 178.057 480.076 177.959C479.898 177.912 479.716 177.864 479.538 177.817C446.699 169.213 424.624 187.288 404.811 209.31C406.746 201.157 408.764 193.076 411.04 184.924C433.308 163.702 464.721 148.968 495.488 157.082C495.608 157.113 495.722 157.144 495.843 157.176C496.094 157.244 496.329 157.329 496.578 157.397C490.609 163.447 485.398 170.317 481.149 178.281ZM495.896 155.535C465.411 147.495 434.366 161.4 411.877 181.971C412.936 178.277 414.069 174.553 415.264 170.803C446.079 144.298 491.959 123.23 532.45 132.21C519.598 138.896 507.764 146.462 497.875 156.122C497.211 155.931 496.572 155.714 495.896 155.535ZM409.612 184.089C404.644 188.856 400.125 193.934 396.177 199.155C393.971 202.071 391.806 204.955 389.666 207.804C369.985 234.01 352.486 257.307 326.641 276.403C328.043 274.423 329.252 272.417 330.051 270.385C330.074 270.325 330.097 270.281 330.12 270.222C349.529 256.126 361.7 238.337 374.463 219.645C383.278 206.735 392.393 193.384 404.204 181.188C406.936 178.366 409.863 175.571 412.947 172.823C411.771 176.604 410.656 180.359 409.612 184.089ZM322.153 279.606C317.525 282.818 312.639 285.908 307.423 288.859C274.937 307.24 239.052 317.926 204.346 328.261C192.659 331.741 180.726 335.298 168.865 339.16C167.296 333.89 165.952 328.616 164.89 323.366C174.488 321.253 184.122 319.271 193.578 317.346C236.711 308.564 281.314 299.482 320.23 276.703C322.765 275.219 325.157 273.666 327.476 272.075C326.108 274.6 324.193 277.122 322.153 279.606ZM100.922 389.525C99.9376 399.036 102.015 410.154 106.876 423.5C110.225 432.693 114.51 441.209 119.551 449.118C115.817 446.445 112.067 443.794 108.295 441.17C101.036 430.905 94.8464 419.771 90.0376 407.61C86.3614 398.313 80.3517 383.097 80.66 369.655C87.5195 376.149 94.2664 382.789 100.922 389.525ZM122.027 452.858C130.028 464.545 139.719 474.851 150.541 483.976C135.63 472.726 122.262 459.88 111.184 445.141C114.815 447.693 118.431 450.263 122.027 452.858ZM252.754 546.977C253.534 547.7 254.314 548.42 255.097 549.139C251.792 548.001 248.504 546.845 245.248 545.652C244.615 545.365 243.997 545.072 243.379 544.779C242.535 544.094 241.802 543.408 241.189 542.723C244.945 544.243 248.819 545.657 252.754 546.977ZM269.319 556.001C270.379 556.785 271.436 557.573 272.492 558.363C269.773 557.433 267.114 556.479 264.554 555.504C263.992 555.009 263.433 554.509 262.874 554.011C265.001 554.698 267.155 555.36 269.319 556.001ZM273.696 557.264C275.277 557.709 276.859 558.145 278.438 558.568C280.244 559.052 282.041 559.515 283.831 559.972C284.059 560.243 284.287 560.515 284.517 560.784C283.678 561.021 282.881 561.26 282.124 561.498C280.505 560.995 278.889 560.483 277.281 559.96C276.088 559.059 274.892 558.161 273.696 557.264ZM293.761 571.072C295.297 572.693 296.848 574.289 298.417 575.855C298.265 575.805 298.117 575.755 297.966 575.704C295.487 573.826 292.994 571.926 290.49 570.013C291.572 570.368 292.663 570.72 293.761 571.072ZM324.292 590.881C322.086 590.627 319.878 590.406 317.673 590.197C316.377 589.285 315.079 588.364 313.78 587.43C317.275 588.603 320.861 589.785 324.292 590.881ZM328.026 592.964C329.692 594.467 331.339 595.938 332.969 597.368C330.053 596.595 327.369 595.862 324.926 595.177C323.406 594.159 321.885 593.125 320.364 592.072C322.92 592.337 325.475 592.637 328.026 592.964ZM325.232 598.378C323.313 597.358 321.397 596.332 319.493 595.28C320.24 595.499 321.006 595.722 321.794 595.947C322.933 596.774 324.079 597.585 325.232 598.378ZM370.25 613.927C371.286 613.588 372.287 613.186 373.255 612.726C373.701 612.785 374.16 612.848 374.593 612.904C375.469 613.103 376.326 613.291 377.162 613.466C376.584 613.573 375.993 613.632 375.409 613.719C373.694 613.84 371.973 613.904 370.25 613.927ZM388.016 611.991C389.621 611.358 391.209 610.672 392.772 609.905C393.73 609.996 394.685 610.086 395.643 610.171C393.11 610.866 390.569 611.475 388.016 611.991ZM395.377 608.535C395.665 608.377 395.96 608.238 396.247 608.076C397.373 608.364 398.442 608.639 399.393 608.89C398.058 608.785 396.716 608.654 395.377 608.535ZM392.411 608.272C389.838 608.02 387.263 607.745 384.693 607.44C385.817 606.977 386.94 606.497 388.06 606.002C389.22 606.295 390.353 606.582 391.426 606.853C392.271 607.066 393.094 607.275 393.902 607.479C393.404 607.742 392.912 608.021 392.411 608.272ZM391.352 604.51C394.042 603.251 396.724 601.918 399.398 600.523C401.086 600.62 402.762 600.681 404.429 600.721C402.38 602.268 400.29 603.711 398.158 605.035C395.947 604.928 393.675 604.75 391.352 604.51ZM388.275 604.157C387.611 604.075 386.942 603.988 386.271 603.895C385.749 603.762 385.215 603.626 384.677 603.489C385.77 602.213 386.824 600.871 387.849 599.48C390.672 599.817 393.494 600.102 396.298 600.315C393.631 601.669 390.956 602.955 388.275 604.157ZM388.914 598.004C389.909 596.596 390.879 595.15 391.833 593.682C396.933 594.149 401.995 594.431 406.995 594.496C407.018 594.51 407.04 594.524 407.063 594.538C404.398 596.038 401.723 597.497 399.042 598.902C395.692 598.7 392.306 598.395 388.914 598.004ZM430.368 582.775C431.008 583.435 431.639 584.109 432.26 584.801C430.118 585.078 427.938 585.312 425.724 585.506C427.269 584.593 428.817 583.682 430.368 582.775ZM436.688 579.126C437.594 578.611 438.5 578.101 439.408 577.595C444.292 577.265 449.16 576.806 453.995 576.184C450.358 577.162 446.65 577.984 442.887 578.67C440.83 578.835 438.775 579.004 436.688 579.126ZM461.168 573.502C461.472 573.215 461.778 572.928 462.081 572.639C463.698 572.153 465.293 571.641 466.865 571.102C468.281 570.803 469.696 570.483 471.109 570.156C468.803 571.184 466.46 572.142 464.071 573.013C463.104 573.185 462.136 573.344 461.168 573.502ZM538.959 528.733C540.352 527.937 541.747 527.146 543.146 526.368C540.004 528.393 536.842 530.327 533.661 532.17C535.444 531.054 537.207 529.903 538.959 528.733ZM610.745 394.903C608.041 379.58 603.191 363.745 597.969 346.743C595.881 339.943 593.722 332.91 591.628 325.672C590.828 322.905 590.053 320.072 589.291 317.185C593.207 312.92 597.378 309.061 601.825 305.722C602.369 307.533 602.911 309.339 603.479 311.185C606.864 322.19 611.678 333.184 616.332 343.817C621.438 355.484 626.664 367.484 630.094 379.642C623.429 384.203 616.97 389.361 610.745 394.903ZM561.174 218.138C548.784 189.622 530.449 166.116 499.454 156.59C509.438 146.989 521.478 139.506 534.8 132.745C534.896 132.769 534.993 132.786 535.089 132.811C535.447 132.903 535.799 132.995 536.151 133.089C572.881 142.931 578.736 167.901 581.461 202.122C573.541 207.052 566.94 212.273 561.174 218.138ZM573.662 113.277C570.667 114.605 567.688 115.912 564.729 117.209C554.431 121.724 544.28 126.178 534.656 131.072C494.027 121.108 447.76 141.546 416.177 167.929C417.182 164.863 418.228 161.779 419.35 158.655C420.472 155.532 421.414 152.368 422.178 149.163C467.49 116.66 535.824 92.9239 590.878 105.8C585.116 108.265 579.361 110.75 573.662 113.277ZM79.1238 368.197C78.3311 382.331 84.6994 398.456 88.5523 408.2C92.8555 419.084 98.233 429.165 104.496 438.531C100.998 436.123 97.4789 433.746 93.9454 431.389C85.1845 419.35 77.8642 406.607 71.9802 393.131C67.2852 382.382 60.2731 366.308 61.2146 351.969C67.2787 357.243 73.2435 362.664 79.1238 368.197ZM107.07 442.266C119.732 460.136 135.692 475.3 153.675 488.292C153.559 488.233 153.443 488.172 153.326 488.113C130.521 472.346 111.748 454.759 96.8724 435.279C100.289 437.584 103.687 439.915 107.07 442.266ZM257.358 552.155C257.917 552.352 258.481 552.543 259.045 552.736C259.44 553.092 259.838 553.444 260.234 553.798C259.21 553.379 258.209 552.957 257.235 552.532C257.261 552.409 257.321 552.28 257.358 552.155ZM263.759 556.937C264.59 557.668 265.424 558.391 266.258 559.116C262.93 557.58 260.454 556.203 258.944 555.029C260.485 555.668 262.093 556.304 263.759 556.937ZM267.977 558.492C270.703 559.465 273.556 560.432 276.523 561.391C277.148 561.864 277.772 562.336 278.395 562.809C277.835 563.034 277.324 563.257 276.853 563.478C274.828 562.715 272.952 561.976 271.213 561.262C270.132 560.343 269.052 559.422 267.977 558.492ZM276.263 565.49C276.413 565.405 276.613 565.312 276.791 565.222C279.636 566.296 282.659 567.374 285.801 568.446C286.415 568.915 287.03 569.384 287.644 569.853C289.499 571.271 291.343 572.678 293.183 574.079C288.678 572.52 284.633 571.034 281.514 569.752C279.754 568.348 278.004 566.928 276.263 565.49ZM299.51 578.876C301.141 580.107 302.768 581.328 304.391 582.536C300.399 581.158 297.006 579.966 294.799 579.186C296.006 579.073 297.613 578.969 299.51 578.876ZM318.124 593.209C316.126 592.61 314.413 592.074 313.015 591.615C312.862 591.527 312.707 591.442 312.554 591.354C313.746 591.448 314.944 591.565 316.139 591.672C316.798 592.192 317.461 592.7 318.124 593.209ZM398.176 606.918C398.323 606.828 398.472 606.741 398.62 606.651C401.382 606.771 404.042 606.771 406.581 606.643C405.226 607.143 403.867 607.621 402.505 608.078C401.444 607.773 400.037 607.398 398.176 606.918ZM408.993 599.166C409.737 598.548 410.474 597.918 411.206 597.274C411.593 597.563 411.984 597.848 412.359 598.15C412.755 598.47 413.14 598.751 413.525 599.031C412.03 599.105 410.52 599.151 408.993 599.166ZM406.45 599.169C405.034 599.155 403.607 599.115 402.171 599.058C404.333 597.897 406.487 596.7 408.636 595.484C409.054 595.751 409.459 596.034 409.866 596.314C408.74 597.295 407.603 598.249 406.45 599.169ZM410.192 594.604C410.252 594.57 410.312 594.536 410.372 594.503C410.888 594.499 411.402 594.491 411.916 594.482C411.645 594.732 411.369 594.97 411.096 595.216C410.798 595.007 410.496 594.805 410.192 594.604ZM413.216 592.863C413.573 592.656 413.931 592.451 414.287 592.243C414.076 592.447 413.864 592.651 413.652 592.853C413.506 592.858 413.361 592.859 413.216 592.863ZM419.714 589.059C420.675 588.492 421.637 587.924 422.595 587.356C426.335 587.099 429.969 586.723 433.511 586.241C434.576 587.498 435.605 588.808 436.599 590.174C429.997 591.621 423.126 592.44 416.079 592.758C417.308 591.553 418.521 590.322 419.714 589.059ZM438.284 589.779C437.348 588.465 436.38 587.201 435.381 585.985C439.424 585.384 443.331 584.63 447.109 583.731C444.701 585.697 442.267 587.596 439.809 589.42C439.306 589.549 438.792 589.658 438.284 589.779ZM434.168 584.543C433.392 583.649 432.6 582.784 431.792 581.943L431.909 581.875C435.662 581.462 439.373 580.926 443.034 580.262C446.157 580.012 449.246 579.711 452.301 579.362C451.519 580.04 450.734 580.71 449.947 581.375C444.937 582.71 439.672 583.762 434.168 584.543ZM455.084 579.062C455.523 579.007 455.951 578.935 456.388 578.878C456.374 579.077 456.371 579.279 456.344 579.474C455.45 579.767 454.547 580.051 453.636 580.325C454.119 579.905 454.603 579.488 455.084 579.062ZM514.035 543.887C528.494 537.308 542.226 529.345 555.168 519.957C557.703 518.667 560.255 517.412 562.823 516.191C547.171 527.518 530.596 536.943 513.154 544.448C513.447 544.26 513.742 544.074 514.035 543.887ZM562.07 514.777C575.714 504.124 588.456 491.864 600.246 478.004C612.905 463.123 622.117 448.694 627.878 434.79C633.312 430.843 638.829 427.119 644.432 423.681C637.244 439.335 626.101 454.107 615.361 466.922C601.067 483.977 585.617 498.857 569.095 511.555C566.739 512.6 564.395 513.671 562.07 514.777ZM645.564 421.128C639.954 424.49 634.426 428.128 628.988 432.006C635.058 416.159 636.591 401.011 633.523 386.682C633.067 384.553 632.531 382.43 631.953 380.313C637.253 376.745 642.683 373.575 648.229 370.908C648.509 371.652 648.8 372.391 649.067 373.14C654.796 389.256 652.219 405.592 645.564 421.128ZM631.486 378.695C628.025 366.612 622.855 354.73 617.796 343.174C613.159 332.582 608.365 321.63 605.007 310.713C604.382 308.682 603.783 306.689 603.187 304.7C603.357 304.578 603.52 304.442 603.691 304.322C607.065 301.951 610.965 299.779 615.173 297.757C615.587 299.168 615.985 300.573 616.429 301.998C620.676 315.614 627.282 328.132 633.672 340.236C638.629 349.626 643.728 359.303 647.662 369.397C642.149 372.041 636.752 375.173 631.486 378.695ZM602.773 303.013C602.746 303.032 602.72 303.053 602.694 303.072C591.462 265.315 585.464 235.125 583.365 206.048C583.29 205.013 583.213 203.987 583.133 202.968C586.996 200.598 591.169 198.293 595.725 196.018C601.961 192.902 608.49 189.919 615.099 187.023C614.574 188.839 614.057 190.645 613.564 192.433C603.905 227.41 604.241 259.665 614.713 296.204C610.341 298.293 606.284 300.544 602.773 303.013ZM615.104 192.859C615.711 190.66 616.354 188.432 617.006 186.194C622.659 183.736 628.355 181.337 633.968 178.975C640.291 176.317 646.657 173.633 652.993 170.859C651.484 173.313 650.158 175.541 649.096 177.496C627.74 216.779 621.387 252.75 629.28 290.137C624.761 291.81 620.337 293.59 616.175 295.513C605.857 259.372 605.549 227.454 615.104 192.859ZM620.684 93.2425C611.697 96.9945 602.534 100.829 593.374 104.732C538.082 90.7723 468.911 114.22 422.693 146.822C424.473 138.344 425.018 129.57 424.322 120.466C492.358 81.879 590.311 63.5093 658.739 77.1159C646.006 82.6466 633.215 88.0123 620.684 93.2425ZM333.539 258.953C334.244 262.885 333.973 263.078 333.182 263.532C332.634 263.848 331.888 264.292 331.041 265.305C330.322 265.846 329.612 266.396 328.868 266.918C326.877 268.314 324.846 269.64 322.796 270.927C326.288 268.229 329.349 265.176 331.798 261.686C332.415 260.808 332.987 259.889 333.539 258.953ZM59.7044 350.668C58.2549 365.697 65.6225 382.57 70.5154 393.772C75.904 406.112 82.5051 417.83 90.2798 428.97C86.3941 426.409 82.4883 423.879 78.5545 421.392C69.0478 408.25 60.9352 394.371 54.2777 379.738L54.1076 379.362C48.5916 367.241 41.0439 350.642 42.331 336.331C48.2198 340.959 54.006 345.748 59.7044 350.668ZM92.8087 432.556C106.567 451.416 123.873 468.536 144.804 483.998C142.588 482.966 140.357 481.965 138.115 480.985C115.639 464.222 96.6501 445.544 81.2073 424.984C85.0959 427.476 88.9652 429.997 92.8087 432.556ZM152.523 489.502C164.784 497.971 178.205 505.914 192.791 513.35C191.421 513.023 190.045 512.721 188.665 512.446C172.739 504.159 157.989 495.211 144.445 485.599C147.155 486.864 149.849 488.164 152.523 489.502ZM197.854 516.348C198.809 516.967 199.781 517.57 200.758 518.169C201.113 518.466 201.476 518.756 201.838 519.048C199.346 517.855 196.9 516.638 194.461 515.416C195.596 515.708 196.727 516.021 197.854 516.348ZM255.919 553.732C256.106 554.109 256.408 554.499 256.765 554.896C255.727 554.164 254.695 553.433 253.66 552.702C254.393 553.046 255.146 553.39 255.919 553.732ZM270.431 562.699C271.556 563.653 272.683 564.605 273.816 565.548C273.703 565.7 273.61 565.852 273.559 566.001C273.512 566.133 273.485 566.315 273.508 566.525C269.908 564.066 266.323 561.592 262.759 559.103C264.931 560.269 267.52 561.473 270.431 562.699ZM280.481 570.977C281.146 571.506 281.804 572.044 282.47 572.569C281.44 571.884 280.414 571.195 279.387 570.505C279.735 570.659 280.109 570.818 280.481 570.977ZM297.55 581.852C300.548 582.904 304.428 584.253 308.68 585.704C309.249 586.121 309.817 586.532 310.385 586.946C311.547 587.94 312.719 588.913 313.896 589.873C312.409 589.75 310.92 589.624 309.44 589.524C307.481 588.371 305.527 587.21 303.584 586.03C301.561 584.666 299.551 583.27 297.55 581.852ZM427.515 597.24C423.906 598.043 420.094 598.578 416.13 598.876C415.261 598.327 414.322 597.681 413.361 596.905C413.056 596.659 412.737 596.43 412.425 596.193C413.066 595.612 413.702 595.022 414.336 594.425C421.941 594.176 429.358 593.361 436.479 591.835C435.163 592.766 433.844 593.683 432.515 594.569C430.856 595.481 429.188 596.369 427.515 597.24ZM450.732 582.812C451.597 582.579 452.457 582.34 453.308 582.09C450.891 583.641 448.456 585.175 446.004 586.684C447.591 585.421 449.166 584.131 450.732 582.812ZM457.986 578.91C457.992 578.821 458.006 578.735 458.009 578.646C458.265 578.611 458.518 578.572 458.774 578.536C458.667 578.607 458.561 578.677 458.453 578.747C458.298 578.802 458.142 578.856 457.986 578.91ZM474.779 570.245C475.08 570.099 475.37 569.935 475.671 569.787C475.296 570.084 474.921 570.383 474.544 570.68C474.629 570.539 474.698 570.389 474.779 570.245ZM489.454 560.568C490.008 560.23 490.551 559.878 491.098 559.531C493.965 559.398 496.841 559.455 499.727 559.719C494.569 561.692 489.387 563.466 484.18 565.031C486.229 563.701 487.981 562.206 489.454 560.568ZM493.665 557.856C495.942 556.315 498.161 554.704 500.298 552.996C500.589 552.762 500.852 552.507 501.136 552.268C502.284 551.527 503.43 550.783 504.551 550.006C504.935 549.756 505.317 549.509 505.7 549.26C528.57 540.318 550.035 528.216 569.939 512.932C574.702 510.823 579.537 508.851 584.448 507.023C558.11 530.122 530.87 547.296 502.891 558.475C499.802 558.035 496.727 557.837 493.665 557.856ZM649.112 368.714C645.152 358.575 640.047 348.888 635.084 339.488C628.728 327.447 622.156 314.995 617.954 301.52C617.486 300.022 617.067 298.544 616.633 297.06C620.745 295.15 625.134 293.383 629.62 291.716C629.959 293.246 630.314 294.778 630.7 296.313C635.233 314.309 643.594 327.609 652.447 341.688C656.692 348.439 661.055 355.39 664.987 362.942C659.597 364.364 654.303 366.316 649.112 368.714ZM630.794 289.576C623.06 252.66 629.382 217.105 650.5 178.26C651.823 175.827 653.564 172.953 655.572 169.728C666.892 164.716 678.069 159.369 688.647 153.25C688 154.054 687.407 154.81 686.904 155.489C654.596 199.115 642.095 240.007 647.745 283.818C642.201 285.626 636.443 287.521 630.794 289.576ZM657.093 167.295C657.646 166.416 658.208 165.522 658.79 164.599C672.178 143.341 692.413 111.216 684.141 91.5669C681.069 84.272 674.234 79.2766 663.895 76.6206C669.775 74.041 675.638 71.4314 681.441 68.7584C684.34 67.4238 687.466 66.0325 690.748 64.5733C701.747 59.6797 714.52 53.9948 726.306 47.0531C735.779 49.6523 741.68 54.2878 743.763 60.8598C750.545 82.2591 717.837 119.644 698.294 141.982C695.824 144.805 693.612 147.335 691.717 149.558C680.737 156.212 669.017 161.959 657.093 167.295ZM690.1 63.1106C686.812 64.5738 683.68 65.9683 680.774 67.3057C674.35 70.264 667.85 73.1428 661.333 75.9895C592.692 61.4967 493.247 79.7777 424.174 118.711C423.171 107.982 420.455 96.7948 416.021 85.0997C464.11 64.2726 515.504 54.6961 556.256 48.6429C610.154 40.6363 672.209 34.1327 724.119 46.4702C712.79 53.0083 700.626 58.4275 690.1 63.1106ZM422.654 119.575C419.473 121.393 416.336 123.24 413.294 125.146C383.291 143.944 362.095 167.095 350.299 193.955C346.538 202.516 344.56 213.02 342.648 223.178C340.492 234.631 338.263 246.401 333.481 255.742C330.543 252.285 323.778 246.912 315.233 240.721C315.584 234.271 315.686 227.825 315.768 221.556C316.008 203.112 316.234 185.69 322.62 168.08C333.444 138.229 357.847 113.967 397.226 93.9086C402.933 91.0019 408.725 88.3111 414.559 85.7529C419.018 97.5393 421.721 108.798 422.654 119.575ZM172.535 297.717C169.14 297.886 165.71 298.058 162.265 298.235C162.276 296.829 162.323 295.43 162.395 294.036C162.398 294.036 162.401 294.036 162.404 294.037C177.111 294.758 194.445 295.607 212.057 295.414C198.797 296.405 185.56 297.071 172.535 297.717ZM40.8405 335.172C39.0577 350.122 46.9255 367.437 52.6536 380.026L52.8239 380.402C58.9859 393.946 66.4479 406.898 75.1472 419.244C71.1449 416.744 67.1101 414.297 63.0557 411.883C53.2899 398.278 44.5182 383.556 36.9974 367.624L36.4211 366.405C30.5447 353.973 22.575 337.09 24.286 322.911C29.8992 326.842 35.4114 330.942 40.8405 335.172ZM77.6675 422.722C92.6127 443.175 111.064 461.899 132.891 478.763C130.128 477.618 127.344 476.516 124.537 475.458C102.802 458.38 82.6632 438.44 65.4519 415.16C69.5518 417.633 73.6199 420.162 77.6675 422.722ZM138.075 482.714C143.223 486.529 148.533 490.254 154.037 493.868C163.485 500.073 173.472 505.985 183.965 511.606C182.186 511.332 180.397 511.114 178.602 510.932C161.612 501.627 144.911 491.007 128.996 478.904C132.047 480.124 135.073 481.394 138.075 482.714ZM188.717 514.094C194.903 517.307 201.253 520.426 207.779 523.436C209.82 524.817 211.937 526.143 214.129 527.411C215.056 528.194 216.021 528.958 217.019 529.706C205.488 524.691 193.914 519.146 182.45 513.012C184.55 513.311 186.639 513.671 188.717 514.094ZM233.808 541.307C232.499 540.792 231.208 540.258 229.907 539.735C230.228 539.598 230.546 539.442 230.868 539.316C231.803 539.995 232.789 540.657 233.808 541.307ZM454.786 583.039C453.716 584.34 452.12 585.394 449.952 586.223C449.814 586.276 449.673 586.321 449.534 586.373C451.294 585.272 453.045 584.16 454.786 583.039ZM459.17 580.189C461.197 579.473 463.179 578.707 465.115 577.89C461.836 580.313 458.517 582.677 455.163 584.962C456.309 583.892 457.109 582.648 457.566 581.241C458.103 580.891 458.635 580.54 459.17 580.189ZM480.895 567.64C488.342 565.544 495.74 563.04 503.086 560.12C504.394 560.315 505.703 560.538 507.014 560.824C497.351 564.626 487.624 567.723 477.82 570.123C478.85 569.298 479.875 568.47 480.895 567.64ZM591.509 502.832C605.524 489.996 619.278 475.495 632.742 459.317L634.164 457.61C644.596 445.095 657.834 429.204 665.758 412.308C671.064 409.916 676.44 407.816 681.896 406.081C674.433 420.333 662.567 433.962 653.13 444.792C651.117 447.103 649.209 449.293 647.465 451.347C631.998 469.569 616.521 485.739 600.979 499.902C597.786 500.816 594.628 501.789 591.509 502.832ZM666.75 410.103C673.103 395.619 675.343 380.479 668.395 366.147C668.045 365.426 667.684 364.721 667.326 364.012C672.487 362.779 677.732 362.054 683.051 361.914C683.633 362.74 684.191 363.581 684.697 364.456C691.928 376.954 689.471 390.761 682.899 404.111C677.441 405.779 672.056 407.781 666.75 410.103ZM671.989 289.274C673.81 304.392 675.694 320.025 680.133 333.824C683.443 344.117 688.264 349.425 693.369 355.045C695.244 357.112 697.164 359.232 699.095 361.673C693.953 360.657 688.872 360.219 683.86 360.292C681.381 356.931 678.375 353.88 675.442 350.908C671.448 346.858 667.316 342.67 664.495 337.696C655.734 322.253 652.356 303.7 649.879 287.523C649.745 286.654 649.633 285.79 649.515 284.923C649.606 284.894 649.699 284.863 649.79 284.833C657.278 282.393 664.359 280.08 670.532 277.655C671.04 281.449 671.513 285.33 671.989 289.274ZM670.323 276.018C664.108 278.481 656.912 280.83 649.297 283.312C649.294 283.313 649.299 283.311 649.297 283.312C643.799 240.045 656.217 199.614 688.187 156.441C689.316 154.917 690.891 152.998 692.763 150.797C700.096 146.341 707.103 141.474 713.624 136.047C677.078 182.989 663.698 226.247 670.323 276.018ZM762.475 13.998C773.305 16.9001 779.937 22.0662 782.196 29.3726C789.578 53.2438 750.97 94.9646 727.902 119.891C723.431 124.723 719.672 128.785 716.912 131.996L716.466 131.498C710.218 137.097 703.437 142.101 696.305 146.688C697.327 145.515 698.392 144.298 699.496 143.036C719.26 120.443 752.34 82.6336 745.287 60.3747C743.138 53.6002 737.375 48.764 728.183 45.925C742.375 37.3188 754.878 26.8128 760.739 13.5701C761.325 13.7089 761.911 13.847 762.475 13.998ZM577.314 12.365C632.935 7.09944 702.077 0.560775 759.148 13.2092C753.215 26.3492 740.456 36.7808 726.07 45.3282C725.731 45.2395 725.425 45.1316 725.077 45.0478C672.783 32.4598 610.273 39.0008 556.023 47.0601C515.188 53.126 463.692 62.7224 415.456 83.6009C410.639 71.2548 403.909 58.3387 395.271 44.7981C454.892 25.957 517.742 18.0054 577.314 12.365ZM283.341 216.107C282.833 213.991 282.317 211.867 281.798 209.738C275.099 182.199 268.171 153.722 278.365 126.285C293.38 85.8533 338.003 65.119 375.201 51.5711C381.322 49.3419 387.498 47.2813 393.697 45.3006C402.408 58.9127 409.17 71.8761 413.992 84.2551C408.107 86.8342 402.262 89.549 396.503 92.482C356.744 112.734 332.086 137.284 321.119 167.535C314.641 185.4 314.401 203.771 314.169 221.536C314.091 227.456 314.004 233.535 313.698 239.614C306.186 234.217 297.463 228.271 288.828 222.47C286.495 220.903 284.728 219.716 284.1 219.264C284.083 219.198 284.068 219.131 284.052 219.065L283.341 216.107ZM163.16 288.802C196.456 290.65 234.197 292.746 265.088 281.303C295.271 270.124 290.686 246.71 284.66 221.592C285.462 222.135 286.531 222.853 287.938 223.798C293.287 227.393 303.929 234.543 313.586 241.513C313.526 242.531 313.479 243.551 313.403 244.567C309.365 299.637 217.424 295.132 162.488 292.439C162.573 291.215 162.683 289.996 162.82 288.782C162.934 288.79 163.045 288.795 163.16 288.802ZM19.2398 294.621C43.8071 280.147 84.2635 283.431 116.769 286.069C125.651 286.79 134.038 287.47 141.365 287.732C147.794 287.96 154.352 288.314 161.222 288.695C161.087 289.911 160.977 291.134 160.892 292.361C150.696 291.862 141.852 291.448 134.906 291.486C130.332 291.511 124.83 291.36 119.005 291.198C90.0222 290.395 50.3285 289.296 31.6287 305.58C26.8321 309.757 24.2116 314.741 23.0892 320.143C17.8998 316.561 12.6261 313.116 7.26173 309.825C8.7324 303.928 12.361 298.674 19.2398 294.621ZM20.2047 356.991L19.372 355.307C12.7364 341.9 4.46142 325.151 6.90561 311.485C12.2853 314.798 17.5748 318.265 22.7801 321.873C20.6001 336.655 28.8865 354.206 34.9776 367.091L35.5535 368.308C42.584 383.203 50.7098 397.036 59.7047 409.9C55.853 407.639 51.9826 405.414 48.0814 403.24C37.5032 388.541 28.1636 373.115 20.2047 356.991ZM50.3586 406.369C54.2505 408.568 58.1176 410.809 61.9605 413.094C78.7532 436.433 98.4572 456.485 119.787 473.719C117.292 472.832 114.784 471.972 112.254 471.16C88.5379 451.698 67.7917 430.016 50.3586 406.369ZM123.745 476.871C140.037 489.653 157.212 500.836 174.722 510.613C172.936 510.502 171.139 510.446 169.335 510.433C150.159 499.403 132.263 487.237 115.763 474.01C118.444 474.92 121.103 475.878 123.745 476.871ZM178.124 512.497C193.439 520.871 208.978 528.183 224.374 534.571C225.143 535.025 225.924 535.471 226.718 535.91C227.558 536.694 228.447 537.463 229.401 538.211C228.876 538.434 228.351 538.646 227.83 538.898C208.295 530.94 189.706 521.996 172.187 512.088C174.176 512.163 176.154 512.304 178.124 512.497ZM410.285 608.473C413.068 607.308 415.825 606.03 418.555 604.641C419.738 604.252 420.541 603.898 420.905 603.41C423.811 601.856 426.688 600.184 429.534 598.403C431.149 597.998 432.732 597.551 434.255 597.028C435.496 596.602 436.866 595.857 438.19 595.136C438.84 594.782 439.489 594.428 440.122 594.113L440.917 593.718L440.442 592.968C440.276 592.707 440.103 592.456 439.935 592.198C441.144 591.491 442.348 590.777 443.548 590.054C445.912 589.364 448.239 588.59 450.521 587.718C451.081 587.503 451.601 587.268 452.099 587.021C438.638 595.932 424.624 603.485 410.285 608.473ZM471.944 574.734C472.93 573.975 473.912 573.211 474.891 572.443C486.589 569.77 498.177 566.121 509.673 561.475C510.792 561.774 511.914 562.102 513.037 562.473C499.912 567.693 486.215 571.89 471.944 574.734ZM515.253 561.567C514.181 561.179 513.111 560.824 512.043 560.501C542.455 547.834 572.238 528.204 601.771 501.34C605.093 500.396 608.458 499.522 611.869 498.726C584.546 523.212 552.229 546.458 515.253 561.567ZM672.089 436.693C668.851 440.134 665.794 443.383 663.173 446.356C649.375 462.013 633.056 479.49 614.351 496.487C610.977 497.226 607.658 498.055 604.372 498.94C619.186 485.245 633.94 469.75 648.683 452.382C650.421 450.334 652.326 448.148 654.334 445.843C664.139 434.59 676.521 420.362 684.017 405.447C689.355 403.845 694.764 402.584 700.248 401.709C693.247 414.207 681.769 426.41 672.089 436.693Z" fill="url(#paint0_linear_7_654)"/>
</g>
<defs>
<filter id="filter0_f_7_654" x="0.578979" y="0.304077" width="788.123" height="620.19" filterUnits="userSpaceOnUse" color-interpolation-filters="sRGB">
<feFlood flood-opacity="0" result="BackgroundImageFix"/>
<feBlend mode="normal" in="SourceGraphic" in2="BackgroundImageFix" result="shape"/>
<feGaussianBlur stdDeviation="2" result="effect1_foregroundBlur_7_654"/>
</filter>
<linearGradient id="paint0_linear_7_654" x1="43.5064" y1="171.344" x2="718.852" y2="352.302" gradientUnits="userSpaceOnUse">
<stop stop-color="#3C9AFE"/>
<stop offset="1" stop-color="#B8D7F9"/>
</linearGradient>
</defs>
</svg>
