<svg width="14" height="19" viewBox="0 0 14 19" fill="none" xmlns="http://www.w3.org/2000/svg">
<path d="M6.54688 18.2085C1.41406 10.8257 0.5 10.0522 0.5 7.31006C0.5 3.5835 3.48828 0.560059 7.25 0.560059C10.9766 0.560059 14 3.5835 14 7.31006C14 10.0522 13.0508 10.8257 7.91797 18.2085C7.60156 18.7007 6.86328 18.7007 6.54688 18.2085ZM7.25 10.1226C8.79688 10.1226 10.0625 8.89209 10.0625 7.31006C10.0625 5.76318 8.79688 4.49756 7.25 4.49756C5.66797 4.49756 4.4375 5.76318 4.4375 7.31006C4.4375 8.89209 5.66797 10.1226 7.25 10.1226Z" fill="url(#paint0_linear_7_597)"/>
<defs>
<linearGradient id="paint0_linear_7_597" x1="0.534062" y1="9.69484" x2="14.5341" y2="9.69484" gradientUnits="userSpaceOnUse">
<stop stop-color="#1A46B5"/>
<stop offset="1" stop-color="#3C9AFE"/>
</linearGradient>
</defs>
</svg>
